<svg id="svg" version="1.1" xmlns="http://www.w3.org/2000/svg" xmlns:xlink="http://www.w3.org/1999/xlink" width="400" height="309.36819172113286" viewBox="0, 0, 400,309.36819172113286"><g id="svgg"><path id="path0" d="M193.790 49.647 C 193.695 49.748,192.511 49.849,191.158 49.872 C 189.806 49.896,188.560 50.020,188.390 50.150 C 188.220 50.279,186.688 50.483,184.987 50.603 C 183.286 50.724,181.753 50.933,181.582 51.068 C 181.410 51.203,179.876 51.485,178.173 51.695 C 176.471 51.904,175.004 52.193,174.915 52.337 C 174.825 52.481,173.991 52.686,173.062 52.792 C 172.132 52.898,171.300 53.093,171.212 53.226 C 171.124 53.358,170.487 53.555,169.795 53.663 C 169.103 53.770,167.657 54.140,166.581 54.484 C 165.505 54.827,164.426 55.108,164.183 55.108 C 163.940 55.108,163.827 55.248,163.932 55.418 C 164.037 55.588,163.871 55.749,163.563 55.775 C 163.255 55.801,162.864 55.854,162.693 55.894 C 162.523 55.933,162.132 55.982,161.824 56.001 C 161.480 56.023,161.350 56.177,161.488 56.399 C 161.640 56.646,161.540 56.696,161.174 56.555 C 160.878 56.442,160.333 56.518,159.962 56.724 C 159.235 57.128,159.079 57.178,158.341 57.237 C 158.075 57.258,157.934 57.397,158.026 57.546 C 158.118 57.695,157.616 57.910,156.911 58.022 C 156.206 58.135,155.268 58.425,154.827 58.667 C 153.602 59.339,151.158 60.372,150.791 60.372 C 150.611 60.372,150.464 60.505,150.464 60.669 C 150.464 60.832,149.907 61.133,149.226 61.337 C 148.545 61.541,147.988 61.814,147.988 61.944 C 147.988 62.074,147.581 62.269,147.085 62.378 C 146.588 62.487,146.112 62.757,146.028 62.978 C 145.943 63.199,145.434 63.467,144.898 63.575 C 144.337 63.687,144.006 63.906,144.120 64.091 C 144.229 64.267,144.204 64.381,144.063 64.343 C 143.642 64.229,142.415 64.728,142.415 65.012 C 142.415 65.158,141.927 65.438,141.331 65.635 C 140.735 65.831,140.248 66.106,140.248 66.244 C 140.248 66.383,139.899 66.584,139.474 66.691 C 139.048 66.797,138.700 67.020,138.700 67.184 C 138.700 67.349,138.247 67.692,137.693 67.946 C 136.328 68.574,135.498 69.119,135.201 69.582 C 135.065 69.795,134.752 69.969,134.505 69.969 C 134.258 69.969,134.056 70.091,134.056 70.241 C 134.056 70.391,133.648 70.682,133.149 70.889 C 132.651 71.095,132.167 71.460,132.075 71.700 C 131.983 71.940,131.764 72.136,131.589 72.136 C 131.413 72.136,131.016 72.380,130.705 72.678 C 130.152 73.210,129.156 74.020,126.867 75.801 C 126.234 76.294,125.764 76.750,125.821 76.816 C 125.879 76.881,125.644 77.214,125.299 77.554 C 124.955 77.895,124.793 77.964,124.941 77.709 C 125.088 77.454,124.769 77.593,124.231 78.019 C 123.694 78.444,123.246 78.967,123.237 79.180 C 123.228 79.392,123.110 79.532,122.976 79.489 C 122.842 79.447,122.348 79.795,121.878 80.263 C 121.409 80.731,121.135 81.123,121.271 81.134 C 121.406 81.145,121.204 81.280,120.820 81.434 C 120.437 81.588,120.124 81.927,120.124 82.188 C 120.124 82.449,119.961 82.628,119.762 82.585 C 119.563 82.543,119.233 82.830,119.027 83.224 C 118.822 83.618,118.537 83.921,118.395 83.898 C 118.252 83.874,118.055 84.085,117.957 84.365 C 117.858 84.646,117.673 84.861,117.546 84.843 C 117.418 84.825,116.936 85.263,116.474 85.816 C 116.013 86.369,115.217 87.271,114.706 87.821 C 113.556 89.057,112.009 90.954,111.652 91.563 C 111.505 91.815,111.117 92.288,110.790 92.616 C 110.462 92.943,110.290 93.367,110.408 93.558 C 110.532 93.758,110.483 93.818,110.291 93.699 C 110.106 93.585,109.779 93.905,109.549 94.425 C 109.322 94.937,109.043 95.356,108.928 95.356 C 108.645 95.356,107.259 97.617,107.358 97.919 C 107.401 98.051,107.235 98.237,106.988 98.331 C 106.730 98.431,106.620 98.710,106.729 98.993 C 106.853 99.317,106.794 99.407,106.554 99.259 C 106.335 99.123,106.192 99.232,106.192 99.536 C 106.192 99.811,106.068 99.960,105.918 99.867 C 105.685 99.723,105.299 100.457,105.150 101.327 C 105.127 101.461,104.969 101.670,104.798 101.791 C 104.628 101.913,104.280 102.430,104.025 102.941 C 103.770 103.452,103.491 103.940,103.406 104.025 C 102.989 104.441,101.858 106.803,101.858 107.259 C 101.858 107.543,101.725 107.695,101.564 107.595 C 101.402 107.495,101.178 107.903,101.065 108.503 C 100.953 109.102,100.737 109.515,100.585 109.422 C 100.434 109.328,100.310 109.439,100.310 109.669 C 100.310 109.898,100.026 110.638,99.680 111.312 C 99.334 111.987,99.014 112.769,98.969 113.050 C 98.924 113.332,98.717 113.767,98.510 114.017 C 98.302 114.268,98.227 114.722,98.344 115.027 C 98.491 115.408,98.444 115.511,98.195 115.358 C 97.989 115.230,97.832 115.309,97.831 115.539 C 97.830 115.762,97.626 116.333,97.378 116.809 C 97.130 117.284,96.837 118.155,96.726 118.744 C 96.616 119.333,96.417 119.814,96.285 119.814 C 96.069 119.814,95.951 120.253,95.461 122.901 C 95.383 123.321,95.194 123.816,95.042 124.000 C 94.889 124.184,94.667 124.954,94.549 125.712 C 94.430 126.470,94.226 127.161,94.095 127.248 C 93.964 127.335,93.778 128.072,93.682 128.887 C 93.586 129.701,93.303 131.093,93.054 131.979 C 92.804 132.866,92.504 134.776,92.387 136.223 C 92.270 137.670,92.019 138.954,91.830 139.075 C 91.329 139.397,91.350 160.313,91.853 161.331 C 92.055 161.740,92.311 163.155,92.422 164.476 C 92.548 165.987,92.740 166.804,92.939 166.681 C 93.137 166.559,93.179 166.726,93.051 167.129 C 92.939 167.482,92.996 168.326,93.179 169.003 C 93.361 169.681,93.593 170.837,93.693 171.573 C 93.794 172.308,93.987 173.050,94.122 173.220 C 94.258 173.390,94.468 174.193,94.589 175.004 C 94.710 175.815,94.919 176.547,95.055 176.631 C 95.191 176.715,95.396 177.339,95.511 178.019 C 95.626 178.698,95.849 179.334,96.007 179.432 C 96.165 179.529,96.217 179.735,96.122 179.889 C 96.027 180.043,96.157 180.486,96.412 180.874 C 96.666 181.262,96.881 181.683,96.889 181.811 C 96.918 182.251,97.042 182.650,97.472 183.689 C 97.670 184.168,97.833 184.769,97.833 185.023 C 97.833 185.277,97.971 185.400,98.139 185.296 C 98.318 185.185,98.364 185.319,98.249 185.619 C 98.141 185.900,98.217 186.232,98.418 186.357 C 98.619 186.481,98.857 186.989,98.947 187.485 C 99.037 187.982,99.314 188.501,99.562 188.640 C 99.810 188.779,99.932 189.023,99.833 189.183 C 99.735 189.343,99.816 189.474,100.015 189.474 C 100.213 189.474,100.299 189.674,100.205 189.918 C 100.111 190.163,100.305 190.707,100.636 191.128 C 100.968 191.549,101.238 192.115,101.238 192.386 C 101.238 192.657,101.363 192.879,101.514 192.879 C 101.666 192.879,101.875 193.216,101.978 193.627 C 102.249 194.707,105.779 200.691,106.325 200.997 C 106.578 201.139,106.707 201.460,106.610 201.711 C 106.514 201.962,106.555 202.171,106.701 202.176 C 106.847 202.180,107.307 202.737,107.725 203.414 C 108.142 204.090,108.593 204.644,108.727 204.644 C 108.861 204.644,109.162 205.097,109.398 205.650 C 109.633 206.204,110.157 207.012,110.563 207.447 C 110.968 207.882,111.714 208.839,112.220 209.574 C 112.725 210.309,113.457 211.119,113.845 211.373 C 114.233 211.628,114.551 212.004,114.551 212.209 C 114.551 212.414,114.865 212.869,115.248 213.220 C 115.631 213.571,116.273 214.291,116.674 214.821 C 117.078 215.355,117.562 215.695,117.758 215.583 C 117.952 215.472,118.008 215.495,117.882 215.634 C 117.587 215.960,118.246 216.768,118.619 216.537 C 118.774 216.441,118.864 216.477,118.818 216.618 C 118.664 217.093,119.733 218.347,119.912 217.901 C 120.022 217.626,120.083 217.665,120.099 218.022 C 120.129 218.661,121.346 219.861,121.726 219.626 C 121.875 219.534,121.958 219.632,121.912 219.843 C 121.865 220.055,122.139 220.391,122.521 220.591 C 122.904 220.790,123.139 221.030,123.045 221.124 C 122.951 221.218,123.335 221.619,123.899 222.015 C 124.462 222.411,125.436 223.228,126.064 223.829 C 128.001 225.685,129.080 226.592,129.802 226.971 C 130.183 227.171,130.607 227.524,130.743 227.754 C 130.879 227.985,131.114 228.173,131.266 228.173 C 131.417 228.173,131.999 228.592,132.559 229.104 C 133.120 229.615,133.827 230.113,134.132 230.210 C 134.437 230.307,135.133 230.794,135.678 231.292 C 136.224 231.790,136.838 232.198,137.044 232.198 C 137.249 232.198,137.624 232.405,137.878 232.659 C 138.131 232.912,139.082 233.505,139.991 233.977 C 140.900 234.448,142.095 235.156,142.647 235.548 C 143.198 235.941,143.811 236.162,144.009 236.040 C 144.206 235.918,144.288 235.947,144.190 236.106 C 144.092 236.265,144.425 236.632,144.931 236.922 C 145.490 237.243,145.774 237.300,145.657 237.068 C 145.551 236.859,145.663 236.929,145.905 237.224 C 146.148 237.520,146.433 237.674,146.540 237.567 C 146.647 237.460,146.822 237.602,146.930 237.881 C 147.037 238.161,147.268 238.390,147.444 238.390 C 147.705 238.390,151.367 240.063,153.650 241.225 C 153.955 241.380,154.360 241.411,154.550 241.294 C 154.759 241.165,154.808 241.221,154.674 241.438 C 154.540 241.654,154.674 241.814,155.013 241.843 C 155.321 241.869,155.753 241.905,155.973 241.923 C 156.193 241.941,156.471 242.094,156.592 242.263 C 156.712 242.432,157.014 242.614,157.261 242.668 C 157.509 242.722,158.288 243.029,158.991 243.350 C 159.695 243.670,160.665 244.004,161.146 244.091 C 161.627 244.178,162.165 244.394,162.342 244.571 C 162.518 244.747,163.022 244.892,163.461 244.892 C 163.899 244.892,164.568 245.109,164.947 245.374 C 165.326 245.639,165.765 245.776,165.923 245.679 C 166.082 245.581,166.289 245.626,166.383 245.780 C 166.478 245.933,167.181 246.152,167.946 246.267 C 168.710 246.382,169.407 246.591,169.494 246.731 C 169.581 246.872,170.315 247.086,171.126 247.207 C 171.937 247.328,172.775 247.570,172.988 247.745 C 173.264 247.972,173.376 247.942,173.379 247.639 C 173.383 247.340,173.451 247.319,173.612 247.571 C 173.868 247.973,177.035 248.706,178.545 248.712 C 179.090 248.715,179.473 248.817,179.398 248.939 C 179.322 249.062,180.409 249.261,181.813 249.383 C 183.217 249.505,184.505 249.716,184.675 249.853 C 184.845 249.990,186.935 250.201,189.319 250.323 C 191.703 250.445,193.976 250.666,194.370 250.814 C 195.310 251.167,206.869 251.164,207.799 250.810 C 208.195 250.660,210.468 250.438,212.850 250.317 C 215.233 250.196,217.322 249.987,217.492 249.853 C 217.663 249.719,218.882 249.512,220.201 249.392 C 221.521 249.271,222.601 249.070,222.601 248.944 C 222.601 248.818,223.053 248.712,223.607 248.709 C 224.873 248.701,228.481 248.040,229.114 247.701 C 229.376 247.560,230.212 247.342,230.972 247.217 C 231.731 247.091,232.492 246.880,232.663 246.748 C 232.833 246.615,233.808 246.335,234.830 246.126 C 235.851 245.917,236.962 245.553,237.298 245.319 C 237.634 245.084,238.226 244.892,238.614 244.892 C 239.002 244.892,239.319 244.729,239.319 244.530 C 239.319 244.332,239.401 244.251,239.501 244.351 C 239.741 244.592,242.704 243.702,243.486 243.155 C 243.824 242.918,244.418 242.724,244.806 242.724 C 245.194 242.724,245.511 242.585,245.511 242.415 C 245.511 242.245,245.760 242.105,246.065 242.105 C 246.369 242.105,247.135 241.842,247.767 241.520 C 248.398 241.198,249.269 240.845,249.702 240.737 C 250.179 240.617,250.405 240.402,250.274 240.191 C 250.155 239.997,250.197 239.928,250.369 240.034 C 250.540 240.140,251.502 239.817,252.507 239.318 C 253.512 238.818,254.494 238.405,254.688 238.400 C 254.883 238.394,255.130 238.161,255.237 237.881 C 255.345 237.602,255.520 237.460,255.627 237.567 C 255.734 237.674,256.019 237.520,256.262 237.224 C 256.504 236.929,256.605 236.876,256.486 237.106 C 256.339 237.393,256.527 237.357,257.083 236.993 C 257.529 236.701,257.895 236.332,257.895 236.174 C 257.895 236.016,258.069 235.914,258.282 235.948 C 258.936 236.052,260.822 235.086,260.338 234.895 C 260.056 234.783,260.122 234.715,260.526 234.698 C 261.242 234.669,263.110 233.590,263.717 232.856 C 264.023 232.486,264.071 232.476,263.902 232.817 C 263.730 233.162,263.831 233.142,264.290 232.740 C 264.631 232.442,265.042 232.198,265.203 232.198 C 265.365 232.198,265.943 231.790,266.489 231.292 C 267.034 230.794,267.730 230.307,268.035 230.210 C 268.340 230.113,269.048 229.615,269.608 229.104 C 270.168 228.592,270.762 228.173,270.927 228.173 C 271.092 228.173,271.302 227.977,271.394 227.737 C 271.486 227.497,271.969 227.132,272.468 226.926 C 272.967 226.719,273.375 226.358,273.375 226.123 C 273.375 225.889,273.520 225.697,273.697 225.697 C 274.071 225.697,274.577 225.317,276.079 223.913 C 276.673 223.358,277.561 222.617,278.053 222.267 C 278.545 221.916,278.947 221.422,278.947 221.168 C 278.947 220.914,279.068 220.781,279.216 220.872 C 279.528 221.065,280.580 220.002,280.327 219.749 C 280.233 219.655,280.502 219.492,280.925 219.386 C 281.347 219.280,281.781 218.913,281.890 218.571 C 281.999 218.228,282.182 217.994,282.298 218.050 C 282.413 218.106,282.816 217.829,283.193 217.435 C 283.584 217.026,283.717 216.710,283.503 216.699 C 283.296 216.688,283.449 216.550,283.843 216.392 C 284.237 216.234,284.473 215.964,284.367 215.792 C 284.261 215.620,284.381 215.480,284.634 215.480 C 284.887 215.480,285.386 215.097,285.744 214.628 C 286.101 214.160,286.912 213.215,287.546 212.529 C 289.443 210.475,290.134 209.570,290.538 208.610 C 290.749 208.108,291.049 207.687,291.204 207.674 C 291.610 207.640,292.879 205.846,292.879 205.306 C 292.879 205.055,292.968 204.939,293.076 205.047 C 293.184 205.155,293.701 204.586,294.225 203.783 C 294.750 202.979,295.306 202.233,295.462 202.124 C 295.617 202.016,295.649 201.771,295.531 201.580 C 295.413 201.390,295.526 201.154,295.782 201.055 C 296.320 200.849,299.873 194.888,300.174 193.686 C 300.286 193.242,300.497 192.879,300.643 192.879 C 300.790 192.879,300.829 192.670,300.731 192.415 C 300.633 192.159,300.693 191.950,300.863 191.950 C 301.256 191.950,302.505 189.461,302.289 189.111 C 302.200 188.967,302.337 188.770,302.593 188.672 C 302.849 188.573,303.154 188.052,303.271 187.513 C 303.388 186.974,303.597 186.460,303.735 186.371 C 303.874 186.282,304.052 185.851,304.132 185.411 C 304.211 184.972,304.568 183.973,304.925 183.190 C 305.281 182.408,305.573 181.559,305.573 181.305 C 305.573 181.050,305.700 180.763,305.855 180.667 C 306.011 180.571,306.246 179.901,306.379 179.178 C 306.511 178.455,306.633 177.794,306.649 177.709 C 306.665 177.624,306.831 177.276,307.018 176.935 C 307.205 176.594,307.460 175.689,307.584 174.923 C 307.708 174.156,307.944 173.363,308.109 173.159 C 308.273 172.955,308.366 172.467,308.316 172.075 C 308.265 171.683,308.324 171.201,308.447 171.003 C 308.570 170.805,308.701 170.283,308.737 169.842 C 308.774 169.401,308.897 169.040,309.012 169.040 C 309.126 169.040,309.276 168.562,309.344 167.978 C 309.412 167.394,309.358 166.985,309.223 167.068 C 309.089 167.151,308.978 167.083,308.978 166.917 C 308.978 166.751,309.114 166.569,309.279 166.512 C 309.445 166.455,309.673 165.364,309.786 164.087 C 309.899 162.810,310.147 161.569,310.336 161.330 C 310.808 160.736,310.823 139.391,310.352 139.075 C 310.171 138.954,309.859 137.262,309.660 135.316 C 309.461 133.369,309.145 131.682,308.957 131.566 C 308.769 131.450,308.642 131.231,308.674 131.080 C 308.819 130.384,308.296 127.245,308.034 127.245 C 307.872 127.245,307.740 126.892,307.740 126.461 C 307.740 126.030,307.473 124.880,307.147 123.907 C 306.820 122.933,306.456 121.614,306.338 120.975 C 306.220 120.337,306.015 119.814,305.882 119.814 C 305.750 119.814,305.551 119.333,305.441 118.744 C 305.330 118.155,305.037 117.284,304.789 116.809 C 304.541 116.333,304.335 115.666,304.332 115.325 C 304.326 114.806,304.274 114.781,304.006 115.170 C 303.742 115.555,303.698 115.529,303.750 115.015 C 303.784 114.675,303.651 114.004,303.454 113.525 C 303.257 113.045,303.096 112.540,303.096 112.402 C 303.096 112.263,302.902 111.989,302.664 111.792 C 302.426 111.594,302.141 110.950,302.031 110.360 C 301.920 109.771,301.699 109.288,301.540 109.288 C 301.381 109.288,301.156 108.905,301.042 108.437 C 300.927 107.968,300.750 107.515,300.649 107.430 C 300.547 107.345,300.007 106.370,299.447 105.263 C 298.887 104.156,298.083 102.693,297.660 102.012 C 297.237 101.331,296.797 100.565,296.683 100.310 C 296.568 100.054,296.327 99.676,296.147 99.469 C 295.263 98.451,295.046 98.150,295.046 97.940 C 295.046 97.455,293.408 95.376,293.151 95.535 C 293.001 95.627,292.879 95.411,292.879 95.055 C 292.879 94.699,292.671 94.328,292.417 94.230 C 292.162 94.133,292.020 93.946,292.101 93.815 C 292.182 93.684,291.910 93.211,291.497 92.765 C 291.083 92.319,290.633 91.763,290.496 91.530 C 290.089 90.836,288.482 88.894,287.040 87.355 C 286.298 86.562,285.482 85.601,285.226 85.219 C 284.971 84.838,284.638 84.602,284.486 84.696 C 284.335 84.790,284.208 84.684,284.205 84.461 C 284.199 84.015,282.671 82.448,282.399 82.608 C 282.305 82.663,282.122 82.419,281.991 82.066 C 281.861 81.713,281.532 81.424,281.261 81.424 C 280.990 81.424,280.842 81.306,280.931 81.161 C 281.112 80.869,279.546 79.379,279.180 79.494 C 279.052 79.534,278.947 79.374,278.947 79.138 C 278.947 78.902,278.590 78.475,278.153 78.188 C 277.716 77.902,277.097 77.406,276.778 77.087 C 276.458 76.768,275.109 75.645,273.780 74.592 C 272.450 73.539,271.316 72.556,271.259 72.407 C 271.202 72.258,270.889 72.136,270.562 72.136 C 270.236 72.136,269.969 71.937,269.969 71.693 C 269.969 71.279,268.866 70.698,268.344 70.836 C 268.216 70.870,268.111 70.693,268.111 70.443 C 268.111 70.179,267.928 70.059,267.675 70.156 C 267.423 70.253,267.163 70.084,267.059 69.756 C 266.883 69.203,266.544 68.969,264.474 67.970 C 263.920 67.703,263.467 67.349,263.467 67.184 C 263.467 67.020,263.119 66.797,262.693 66.691 C 262.268 66.584,261.920 66.383,261.920 66.244 C 261.920 66.106,261.432 65.831,260.836 65.635 C 260.240 65.438,259.752 65.158,259.752 65.012 C 259.752 64.728,258.525 64.229,258.104 64.343 C 257.964 64.381,257.924 64.289,258.017 64.140 C 258.224 63.804,256.720 63.082,256.324 63.327 C 256.166 63.424,256.037 63.302,256.037 63.055 C 256.037 62.808,255.655 62.510,255.189 62.393 C 254.722 62.276,254.270 62.087,254.183 61.972 C 253.995 61.726,251.856 60.674,249.690 59.763 C 248.839 59.404,247.883 58.966,247.566 58.788 C 246.969 58.454,246.299 58.259,244.783 57.978 C 244.144 57.860,244.016 57.742,244.318 57.550 C 244.609 57.366,244.473 57.284,243.875 57.280 C 243.400 57.278,242.675 57.055,242.263 56.784 C 241.851 56.514,241.359 56.389,241.171 56.505 C 240.982 56.622,240.543 56.460,240.196 56.145 C 239.848 55.830,239.508 55.608,239.441 55.650 C 239.374 55.693,238.936 55.725,238.467 55.723 C 237.804 55.719,237.719 55.652,238.080 55.418 C 238.485 55.157,238.480 55.117,238.043 55.113 C 237.768 55.110,236.653 54.823,235.567 54.475 C 234.480 54.126,232.999 53.759,232.276 53.659 C 231.552 53.558,230.960 53.366,230.960 53.231 C 230.960 53.096,230.159 52.887,229.180 52.767 C 228.200 52.646,227.330 52.441,227.245 52.310 C 227.159 52.179,225.697 51.907,223.994 51.704 C 222.291 51.502,220.757 51.220,220.586 51.079 C 220.414 50.938,218.881 50.724,217.180 50.603 C 215.479 50.483,213.933 50.263,213.745 50.115 C 213.557 49.966,213.069 49.847,212.661 49.849 C 212.253 49.852,207.879 49.767,202.941 49.660 C 198.003 49.552,193.885 49.547,193.790 49.647 M208.182 57.566 C 208.705 57.726,211.360 58.016,214.082 58.212 C 216.804 58.408,219.173 58.656,219.345 58.764 C 219.702 58.988,219.981 59.041,222.124 59.294 C 222.968 59.393,223.804 59.588,223.981 59.726 C 224.158 59.864,224.930 60.065,225.697 60.173 C 228.389 60.553,229.258 60.744,229.412 60.991 C 229.497 61.128,230.228 61.339,231.037 61.460 C 231.846 61.581,232.508 61.787,232.508 61.919 C 232.508 62.050,232.852 62.223,233.272 62.303 C 233.693 62.383,233.963 62.330,233.873 62.184 C 233.783 62.039,233.857 61.920,234.037 61.920 C 234.218 61.920,234.366 62.024,234.366 62.152 C 234.368 62.443,236.663 63.392,238.003 63.656 C 238.557 63.765,239.009 63.961,239.009 64.091 C 239.009 64.320,241.093 64.864,241.563 64.758 C 241.691 64.729,241.796 64.855,241.796 65.036 C 241.796 65.222,242.058 65.284,242.392 65.178 C 242.769 65.058,243.090 65.170,243.264 65.481 C 243.416 65.752,243.834 65.996,244.194 66.024 C 244.554 66.051,244.781 66.183,244.697 66.318 C 244.614 66.453,244.684 66.563,244.853 66.563 C 245.022 66.563,245.553 66.713,246.032 66.895 C 246.512 67.077,246.958 67.204,247.024 67.178 C 247.090 67.151,247.230 67.246,247.334 67.388 C 247.699 67.887,250.866 69.329,251.176 69.138 C 251.348 69.032,251.396 69.094,251.283 69.277 C 251.087 69.595,253.101 70.490,253.661 70.334 C 253.801 70.295,253.848 70.374,253.764 70.510 C 253.680 70.645,254.510 71.270,255.609 71.898 C 256.707 72.526,257.511 72.871,257.395 72.665 C 257.279 72.460,257.489 72.604,257.861 72.988 C 258.233 73.371,258.750 73.684,259.009 73.684 C 259.267 73.684,259.393 73.824,259.288 73.994 C 259.183 74.164,259.268 74.303,259.477 74.303 C 259.687 74.303,260.137 74.547,260.478 74.845 C 260.937 75.247,261.037 75.267,260.866 74.923 C 260.729 74.647,260.816 74.678,261.079 75.000 C 261.324 75.298,261.682 75.542,261.876 75.542 C 262.070 75.542,262.229 75.657,262.229 75.799 C 262.229 76.052,264.646 77.904,265.086 77.989 C 265.210 78.013,265.645 78.343,266.053 78.722 C 267.855 80.396,268.375 80.805,268.697 80.805 C 268.886 80.805,269.040 80.928,269.040 81.079 C 269.040 81.230,269.526 81.584,270.120 81.866 C 270.713 82.148,271.166 82.480,271.126 82.605 C 271.016 82.944,273.560 85.160,273.793 84.927 C 273.903 84.817,273.994 84.942,273.994 85.205 C 273.994 85.468,274.230 85.874,274.518 86.108 C 274.964 86.469,275.003 86.468,274.779 86.098 C 274.602 85.803,274.632 85.734,274.875 85.884 C 275.071 86.005,275.232 86.257,275.232 86.442 C 275.232 86.932,277.293 88.858,277.546 88.604 C 277.664 88.487,277.714 88.547,277.657 88.738 C 277.601 88.929,278.195 89.712,278.977 90.477 C 279.760 91.241,280.805 92.408,281.299 93.070 C 281.794 93.731,282.755 94.822,283.437 95.493 C 284.118 96.164,284.466 96.607,284.211 96.476 C 283.942 96.339,283.975 96.426,284.288 96.683 C 284.586 96.927,284.830 97.286,284.830 97.480 C 284.830 97.674,285.039 97.833,285.294 97.833 C 285.550 97.833,285.729 97.937,285.693 98.065 C 285.585 98.447,286.434 99.816,287.051 100.253 C 287.368 100.478,287.546 100.791,287.448 100.950 C 287.350 101.109,287.408 101.238,287.577 101.238 C 287.746 101.238,287.973 101.520,288.082 101.864 C 288.192 102.208,288.758 103.115,289.342 103.879 C 289.925 104.643,290.402 105.481,290.402 105.740 C 290.402 105.999,290.603 106.288,290.848 106.382 C 291.093 106.476,291.383 106.960,291.492 107.456 C 291.601 107.953,291.803 108.359,291.942 108.359 C 292.080 108.359,292.282 108.713,292.390 109.146 C 292.510 109.622,292.725 109.847,292.936 109.717 C 293.139 109.592,293.199 109.640,293.080 109.833 C 292.967 110.015,293.226 110.582,293.656 111.092 C 294.099 111.619,294.291 112.068,294.099 112.132 C 293.913 112.194,294.118 112.628,294.559 113.104 C 295.421 114.034,295.585 114.412,294.969 114.052 C 294.756 113.927,294.815 114.093,295.100 114.420 C 295.384 114.748,295.717 115.433,295.839 115.944 C 295.961 116.455,296.209 117.061,296.390 117.290 C 296.572 117.520,296.764 117.996,296.818 118.350 C 296.872 118.703,297.083 119.192,297.286 119.437 C 297.489 119.682,297.704 120.250,297.763 120.700 C 297.822 121.149,298.058 121.895,298.287 122.358 C 298.516 122.820,298.799 123.761,298.915 124.448 C 299.031 125.135,299.238 125.697,299.376 125.697 C 299.514 125.697,299.789 126.627,299.987 127.764 C 300.185 128.901,300.490 130.099,300.664 130.425 C 300.839 130.751,301.058 131.737,301.151 132.614 C 301.243 133.492,301.437 134.287,301.582 134.379 C 301.726 134.472,301.937 135.757,302.051 137.234 C 302.164 138.711,302.341 139.867,302.444 139.802 C 302.547 139.738,302.591 140.613,302.542 141.747 C 302.480 143.155,302.547 143.666,302.752 143.360 C 302.951 143.064,303.057 145.351,303.066 150.107 C 303.075 155.250,302.982 157.241,302.739 157.091 C 302.501 156.944,302.438 157.490,302.529 158.915 C 302.600 160.033,302.565 160.891,302.452 160.821 C 302.339 160.751,302.146 161.840,302.024 163.241 C 301.903 164.643,301.693 165.929,301.559 166.099 C 301.425 166.269,301.218 167.208,301.100 168.184 C 300.982 169.160,300.772 170.029,300.633 170.115 C 300.495 170.201,300.285 170.912,300.167 171.696 C 299.829 173.952,299.733 174.344,299.422 174.722 C 299.261 174.917,299.043 175.635,298.936 176.316 C 298.830 176.997,298.615 177.598,298.460 177.651 C 298.305 177.705,298.008 178.506,297.801 179.432 C 297.594 180.357,297.308 181.115,297.164 181.115 C 297.021 181.115,296.903 181.289,296.902 181.502 C 296.901 181.714,296.687 182.298,296.426 182.798 C 296.165 183.298,295.812 184.343,295.642 185.120 C 295.471 185.897,295.161 186.672,294.952 186.842 C 294.743 187.012,294.226 187.848,293.803 188.700 C 293.380 189.551,292.895 190.350,292.724 190.475 C 292.533 190.616,292.562 190.704,292.802 190.707 C 293.039 190.710,292.956 190.945,292.586 191.315 C 291.948 191.953,290.893 193.808,291.169 193.808 C 291.258 193.808,291.048 194.092,290.701 194.439 C 290.354 194.785,290.153 195.203,290.255 195.367 C 290.356 195.531,290.315 195.666,290.163 195.666 C 290.012 195.666,289.419 196.397,288.846 197.291 C 288.274 198.185,287.675 199.005,287.516 199.114 C 287.357 199.223,287.319 199.459,287.430 199.640 C 287.542 199.821,287.339 200.126,286.979 200.319 C 286.620 200.512,286.139 201.111,285.911 201.650 C 285.683 202.190,285.207 202.836,284.853 203.087 C 284.500 203.337,284.211 203.657,284.211 203.797 C 284.211 203.937,283.862 204.427,283.437 204.887 C 283.011 205.346,282.663 205.905,282.663 206.130 C 282.663 206.354,282.538 206.461,282.387 206.368 C 282.235 206.274,281.868 206.569,281.570 207.023 C 281.272 207.477,280.665 208.195,280.220 208.619 C 279.776 209.043,279.621 209.292,279.876 209.172 C 280.132 209.053,280.084 209.135,279.770 209.354 C 278.871 209.982,275.528 213.379,275.194 214.004 C 275.028 214.314,274.771 214.494,274.624 214.403 C 274.477 214.312,274.216 214.622,274.045 215.091 C 273.873 215.560,273.722 215.770,273.709 215.557 C 273.692 215.297,273.497 215.348,273.114 215.712 C 272.801 216.010,272.602 216.362,272.673 216.494 C 272.744 216.626,272.687 216.701,272.546 216.660 C 272.124 216.539,270.898 217.457,270.898 217.895 C 270.898 218.119,270.768 218.223,270.609 218.125 C 270.451 218.027,270.137 218.195,269.913 218.499 C 269.688 218.802,269.156 219.275,268.731 219.550 C 268.305 219.824,267.574 220.407,267.105 220.845 C 266.637 221.284,266.249 221.544,266.244 221.425 C 266.239 221.305,266.064 221.416,265.857 221.672 C 265.650 221.927,264.853 222.554,264.087 223.065 C 262.284 224.267,261.900 224.640,262.166 224.935 C 262.286 225.068,262.223 225.084,262.026 224.972 C 261.649 224.756,259.133 226.242,259.133 226.680 C 259.133 226.820,258.905 226.935,258.625 226.935 C 258.346 226.935,257.963 227.146,257.774 227.403 C 257.585 227.660,257.092 227.936,256.679 228.015 C 256.266 228.094,255.848 228.283,255.750 228.434 C 255.653 228.585,255.259 228.807,254.876 228.927 C 254.493 229.046,254.180 229.274,254.180 229.433 C 254.180 229.591,254.005 229.722,253.793 229.723 C 253.580 229.723,252.918 230.030,252.322 230.404 C 251.245 231.081,251.073 231.157,250.446 231.231 C 250.266 231.252,250.190 231.385,250.278 231.527 C 250.365 231.669,250.262 231.785,250.048 231.785 C 249.834 231.785,248.873 232.157,247.914 232.611 C 246.954 233.065,246.032 233.437,245.865 233.437 C 245.699 233.437,245.515 233.579,245.457 233.753 C 245.399 233.927,244.935 234.144,244.425 234.235 C 243.915 234.327,243.190 234.602,242.813 234.848 C 242.436 235.093,241.913 235.294,241.652 235.294 C 241.390 235.294,241.176 235.429,241.176 235.594 C 241.176 235.759,240.945 235.805,240.661 235.696 C 240.340 235.573,240.222 235.622,240.349 235.826 C 240.474 236.029,240.020 236.233,239.161 236.362 C 238.396 236.477,237.771 236.689,237.771 236.834 C 237.771 236.979,237.214 237.191,236.534 237.306 C 235.854 237.421,235.217 237.645,235.120 237.803 C 235.022 237.961,234.806 238.007,234.640 237.904 C 234.474 237.802,234.170 237.853,233.965 238.018 C 233.759 238.183,233.104 238.420,232.508 238.545 C 231.912 238.669,231.279 238.887,231.102 239.029 C 230.925 239.171,230.298 239.377,229.709 239.486 C 229.120 239.596,228.429 239.732,228.173 239.788 C 227.918 239.845,227.604 239.901,227.477 239.914 C 227.349 239.927,227.245 240.147,227.245 240.402 C 227.245 241.045,226.728 240.987,226.560 240.325 C 226.277 239.208,226.699 228.801,227.019 228.999 C 227.218 229.122,227.265 228.917,227.147 228.446 C 227.044 228.034,226.940 223.530,226.918 218.437 C 226.882 210.498,226.805 209.068,226.379 208.417 C 226.014 207.861,225.877 206.881,225.866 204.758 C 225.856 202.798,225.737 201.858,225.498 201.858 C 225.062 201.857,224.771 201.147,224.758 200.052 C 224.753 199.598,224.543 198.955,224.292 198.623 C 224.041 198.291,223.911 197.785,224.002 197.499 C 224.098 197.196,223.968 196.901,223.693 196.796 C 223.433 196.696,223.220 196.346,223.220 196.018 C 223.220 195.690,223.011 195.342,222.755 195.244 C 222.500 195.146,222.291 194.872,222.291 194.635 C 222.291 194.398,221.664 193.530,220.898 192.708 C 218.537 190.172,219.121 189.313,223.190 189.331 C 225.226 189.340,225.936 189.231,226.212 188.869 C 226.470 188.529,227.105 188.403,228.456 188.421 C 229.493 188.435,230.341 188.343,230.341 188.216 C 230.341 187.837,232.107 187.341,232.806 187.524 C 233.193 187.625,233.697 187.476,234.050 187.156 C 234.463 186.783,235.014 186.655,235.860 186.735 C 236.727 186.818,237.035 186.743,236.931 186.473 C 236.846 186.250,237.148 186.017,237.665 185.906 C 238.149 185.802,238.915 185.518,239.367 185.274 C 239.819 185.030,240.463 184.830,240.799 184.830 C 241.135 184.830,241.584 184.621,241.796 184.365 C 242.008 184.110,242.434 183.901,242.744 183.901 C 243.054 183.901,243.393 183.762,243.498 183.591 C 243.604 183.421,243.945 183.282,244.258 183.282 C 244.570 183.282,244.906 183.073,245.004 182.817 C 245.102 182.562,245.410 182.353,245.689 182.353 C 245.968 182.353,246.723 181.935,247.368 181.424 C 248.013 180.913,248.660 180.493,248.806 180.490 C 248.952 180.488,249.543 180.070,250.119 179.562 C 250.696 179.054,251.266 178.638,251.387 178.638 C 252.031 178.638,258.331 171.654,258.928 170.279 C 259.269 169.493,259.884 168.609,260.372 168.206 C 260.627 167.994,260.730 167.817,260.601 167.812 C 260.471 167.806,260.785 167.016,261.297 166.055 C 261.810 165.095,262.229 164.137,262.229 163.926 C 262.229 163.716,262.438 163.370,262.693 163.158 C 262.949 162.946,263.158 162.382,263.158 161.904 C 263.158 161.426,263.367 160.826,263.622 160.571 C 263.878 160.315,264.087 159.695,264.087 159.193 C 264.087 158.691,264.288 158.113,264.533 157.910 C 264.825 157.668,264.967 156.996,264.944 155.972 C 264.918 154.868,265.053 154.299,265.398 154.046 C 266.004 153.603,266.115 153.035,265.808 151.940 C 265.526 150.938,266.177 147.904,266.615 148.175 C 266.806 148.292,266.889 146.177,266.843 142.369 C 266.803 139.074,266.801 135.485,266.838 134.393 C 266.875 133.302,266.767 132.324,266.599 132.220 C 266.024 131.865,265.601 130.216,265.793 129.080 C 265.940 128.213,265.871 127.902,265.500 127.760 C 265.191 127.641,265.015 127.190,265.015 126.518 C 265.015 125.933,264.797 125.282,264.525 125.056 C 264.226 124.808,264.082 124.323,264.156 123.817 C 264.238 123.255,264.097 122.872,263.718 122.636 C 263.410 122.443,263.158 122.017,263.158 121.687 C 263.158 121.358,263.025 121.007,262.863 120.907 C 262.701 120.807,262.126 119.825,261.585 118.726 C 261.043 117.627,260.410 116.569,260.176 116.375 C 259.943 116.182,259.752 115.831,259.752 115.597 C 259.752 115.362,259.637 115.170,259.495 115.170 C 259.354 115.170,258.811 114.578,258.288 113.854 C 257.766 113.131,257.046 112.204,256.688 111.795 C 255.918 110.915,255.880 110.371,256.503 109.175 C 256.758 108.687,256.966 107.921,256.967 107.472 C 256.968 107.024,257.240 106.210,257.573 105.665 C 257.919 105.096,258.163 104.171,258.144 103.498 C 258.126 102.851,258.097 100.093,258.080 97.368 C 258.053 92.970,257.985 92.350,257.472 91.837 C 257.020 91.385,256.928 90.955,257.050 89.868 C 257.175 88.762,257.083 88.352,256.602 87.871 C 256.163 87.432,256.049 87.028,256.188 86.397 C 256.325 85.770,256.245 85.476,255.898 85.343 C 255.634 85.242,255.418 84.806,255.418 84.375 C 255.418 83.326,250.003 83.080,248.999 84.084 C 248.759 84.324,248.032 84.520,247.384 84.520 C 246.714 84.520,246.039 84.721,245.820 84.985 C 245.608 85.240,244.979 85.449,244.422 85.449 C 243.776 85.449,243.341 85.630,243.218 85.949 C 243.086 86.292,242.778 86.401,242.232 86.297 C 241.746 86.204,241.377 86.301,241.283 86.547 C 241.061 87.124,240.235 87.372,239.782 86.996 C 239.497 86.759,239.351 86.840,239.231 87.300 C 239.132 87.677,238.809 87.926,238.419 87.926 C 238.063 87.926,237.771 88.062,237.771 88.229 C 237.771 88.396,237.428 88.619,237.010 88.724 C 236.591 88.829,236.086 89.111,235.888 89.349 C 235.690 89.588,235.281 89.783,234.980 89.783 C 234.678 89.783,234.351 89.992,234.253 90.248 C 234.155 90.503,233.792 90.712,233.446 90.712 C 233.100 90.712,232.817 90.855,232.817 91.029 C 232.817 91.204,232.504 91.488,232.121 91.662 C 231.204 92.077,230.392 92.567,229.170 93.444 C 227.854 94.389,224.497 94.529,223.558 93.679 C 223.179 93.336,222.722 93.207,222.328 93.332 C 221.562 93.575,219.195 92.976,219.195 92.539 C 219.195 92.340,218.687 92.298,217.830 92.427 C 216.271 92.661,214.734 92.399,214.133 91.798 C 213.654 91.319,211.569 91.136,210.710 91.496 C 209.903 91.835,201.906 91.194,201.467 90.755 C 201.054 90.341,199.884 90.274,200.134 90.678 C 200.460 91.206,192.209 91.945,191.119 91.486 C 190.180 91.089,188.246 91.346,187.108 92.017 C 186.244 92.527,185.720 92.615,184.441 92.463 C 183.199 92.316,182.725 92.388,182.279 92.791 C 181.898 93.136,181.171 93.307,180.096 93.305 C 179.032 93.302,178.367 93.457,178.142 93.757 C 177.395 94.758,173.042 94.158,171.827 92.886 C 171.567 92.614,170.473 91.966,169.737 91.648 C 169.354 91.482,169.040 91.204,169.040 91.029 C 169.040 90.855,168.789 90.712,168.483 90.712 C 168.176 90.712,167.770 90.557,167.580 90.367 C 167.390 90.177,166.910 89.852,166.512 89.645 C 166.115 89.438,165.817 89.126,165.852 88.952 C 165.886 88.777,165.578 88.701,165.159 88.781 C 164.653 88.878,164.341 88.760,164.212 88.425 C 164.107 88.151,163.683 87.926,163.270 87.926 C 162.857 87.926,162.436 87.709,162.334 87.444 C 162.232 87.178,161.955 87.036,161.718 87.127 C 161.480 87.218,161.046 87.052,160.751 86.758 C 160.457 86.464,159.910 86.267,159.535 86.320 C 159.125 86.378,158.709 86.186,158.491 85.837 C 158.243 85.440,157.868 85.296,157.298 85.380 C 156.792 85.454,156.307 85.310,156.059 85.011 C 155.800 84.699,155.155 84.520,154.287 84.520 C 153.359 84.520,152.865 84.371,152.744 84.056 C 152.432 83.243,146.440 83.388,146.440 84.208 C 146.440 84.547,146.191 84.980,145.886 85.170 C 145.493 85.415,145.367 85.802,145.449 86.506 C 145.524 87.146,145.391 87.640,145.073 87.903 C 144.726 88.192,144.582 88.848,144.582 90.141 C 144.582 91.364,144.448 92.021,144.176 92.126 C 143.523 92.376,143.459 104.803,144.107 105.451 C 144.546 105.891,144.738 106.843,144.640 108.097 C 144.618 108.378,144.805 108.778,145.055 108.986 C 146.144 109.889,145.559 111.443,143.076 114.241 C 142.548 114.837,142.113 115.468,142.110 115.643 C 142.107 115.818,141.687 116.419,141.176 116.978 C 140.666 117.537,140.248 118.178,140.248 118.402 C 140.248 118.626,140.039 118.983,139.783 119.195 C 139.528 119.407,139.319 119.825,139.319 120.124 C 139.319 120.423,139.118 120.834,138.873 121.037 C 138.628 121.241,138.500 121.598,138.589 121.830 C 138.678 122.063,138.480 122.423,138.148 122.630 C 137.780 122.860,137.603 123.229,137.694 123.577 C 137.776 123.891,137.618 124.491,137.342 124.911 C 137.067 125.331,136.842 126.018,136.842 126.438 C 136.842 126.857,136.606 127.436,136.318 127.725 C 135.950 128.093,135.819 128.658,135.878 129.621 C 135.930 130.477,135.778 131.275,135.473 131.740 C 135.071 132.354,134.985 133.533,134.985 138.397 C 134.985 143.037,134.901 144.262,134.598 144.090 C 134.288 143.916,134.288 143.955,134.598 144.289 C 134.810 144.518,134.985 145.353,134.985 146.144 C 134.985 146.936,135.212 148.039,135.491 148.597 C 135.877 149.373,135.955 150.114,135.818 151.741 C 135.679 153.399,135.731 153.870,136.053 153.870 C 136.280 153.870,136.551 154.090,136.654 154.360 C 136.975 155.196,136.862 156.966,136.487 156.966 C 136.292 156.966,136.501 157.308,136.952 157.725 C 137.430 158.169,137.771 158.817,137.771 159.284 C 137.771 159.724,137.996 160.427,138.271 160.847 C 138.546 161.267,138.701 161.880,138.615 162.210 C 138.525 162.556,138.640 162.878,138.889 162.973 C 139.125 163.064,139.319 163.476,139.319 163.889 C 139.319 164.302,139.528 164.720,139.783 164.818 C 140.039 164.916,140.248 165.334,140.248 165.747 C 140.248 166.159,140.457 166.577,140.712 166.675 C 140.967 166.773,141.176 167.206,141.176 167.637 C 141.176 168.068,141.304 168.421,141.461 168.421 C 141.617 168.421,142.057 168.943,142.439 169.582 C 143.668 171.638,145.594 174.107,147.276 175.780 C 148.178 176.678,148.916 177.549,148.916 177.715 C 148.916 177.882,149.125 178.019,149.381 178.019 C 149.636 178.019,149.845 178.223,149.845 178.473 C 149.845 178.723,150.021 178.861,150.235 178.778 C 150.450 178.696,151.058 179.014,151.587 179.484 C 152.735 180.506,153.473 181.012,154.412 181.417 C 154.795 181.583,155.108 181.861,155.108 182.036 C 155.108 182.210,155.370 182.353,155.690 182.353 C 156.009 182.353,156.444 182.562,156.656 182.817 C 156.868 183.073,157.226 183.282,157.452 183.282 C 157.677 183.282,158.517 183.630,159.318 184.056 C 160.118 184.481,161.014 184.830,161.309 184.830 C 161.603 184.830,162.017 185.039,162.229 185.294 C 162.441 185.550,162.911 185.761,163.273 185.763 C 164.128 185.769,164.837 186.225,164.596 186.614 C 164.478 186.805,164.910 186.863,165.753 186.768 C 166.861 186.643,167.176 186.728,167.542 187.251 C 167.852 187.694,168.121 187.802,168.433 187.609 C 168.934 187.299,170.211 187.526,170.859 188.039 C 171.094 188.224,172.052 188.388,172.989 188.404 C 174.205 188.423,174.802 188.581,175.074 188.952 C 175.388 189.382,175.780 189.439,177.310 189.279 C 181.349 188.857,183.029 190.316,181.065 192.539 C 180.374 193.322,179.687 194.276,179.540 194.659 C 179.393 195.043,179.130 195.356,178.955 195.356 C 178.781 195.356,178.638 195.618,178.638 195.937 C 178.638 196.541,177.929 197.331,177.644 197.045 C 177.554 196.956,177.550 197.241,177.633 197.678 C 177.727 198.171,177.586 198.694,177.262 199.052 C 176.975 199.370,176.765 199.818,176.796 200.047 C 176.926 200.996,176.755 201.839,176.348 202.245 C 176.090 202.504,175.981 203.016,176.078 203.522 C 176.278 204.569,175.163 205.882,174.073 205.882 C 173.664 205.882,173.109 206.104,172.838 206.375 C 172.537 206.676,172.005 206.817,171.467 206.738 C 170.984 206.667,170.588 206.713,170.588 206.841 C 170.588 207.310,168.334 207.805,167.099 207.608 C 166.258 207.473,165.764 207.530,165.610 207.779 C 164.789 209.108,154.168 207.069,152.632 205.287 C 152.546 205.188,152.067 204.899,151.567 204.643 C 149.930 203.808,146.581 200.191,144.489 196.998 C 143.361 195.277,141.946 193.332,141.344 192.677 C 140.743 192.022,140.250 191.382,140.249 191.254 C 140.248 191.126,140.039 191.022,139.783 191.022 C 139.528 191.022,139.316 190.917,139.312 190.789 C 139.308 190.662,138.747 190.145,138.065 189.640 C 137.384 189.136,136.887 188.566,136.961 188.373 C 137.045 188.153,136.830 188.073,136.386 188.158 C 135.996 188.233,135.582 188.141,135.467 187.955 C 135.352 187.769,134.988 187.616,134.659 187.616 C 134.330 187.616,133.895 187.350,133.692 187.026 C 133.411 186.575,133.087 186.473,132.322 186.598 C 131.530 186.726,131.234 186.622,130.911 186.105 C 130.319 185.157,126.664 185.130,126.078 186.068 C 125.865 186.409,125.414 186.687,125.075 186.687 C 123.688 186.687,127.121 190.548,129.054 191.161 C 130.380 191.582,136.011 197.669,136.944 199.690 C 137.062 199.946,137.434 200.573,137.771 201.084 C 138.108 201.594,138.472 202.221,138.581 202.477 C 138.689 202.732,139.109 203.664,139.513 204.547 C 140.304 206.276,140.491 207.617,139.890 207.246 C 139.669 207.109,139.617 207.161,139.754 207.383 C 139.875 207.579,140.261 207.740,140.612 207.740 C 141.089 207.740,141.209 207.890,141.092 208.339 C 140.998 208.699,141.120 209.009,141.398 209.116 C 141.654 209.214,141.781 209.499,141.683 209.755 C 141.576 210.032,141.683 210.217,141.949 210.217 C 142.452 210.217,142.996 211.100,142.861 211.695 C 142.811 211.912,142.844 211.942,142.932 211.760 C 143.023 211.575,143.666 211.943,144.406 212.604 C 147.062 214.979,148.464 215.983,150.155 216.720 C 150.410 216.832,151.083 217.156,151.650 217.440 C 152.218 217.724,152.956 217.957,153.291 217.957 C 153.626 217.957,154.241 218.325,154.659 218.776 C 155.076 219.226,155.418 219.435,155.418 219.240 C 155.418 219.033,155.928 218.885,156.642 218.885 C 157.920 218.885,159.443 219.417,159.443 219.864 C 159.443 220.007,161.401 220.124,163.795 220.124 C 166.305 220.124,168.075 220.006,167.975 219.844 C 167.705 219.407,169.583 218.885,171.429 218.885 C 172.351 218.885,173.384 218.736,173.724 218.554 C 175.183 217.774,175.232 218.141,175.232 229.914 C 175.232 239.641,175.055 242.280,174.534 240.289 C 174.424 239.869,173.970 239.649,172.873 239.485 C 172.042 239.360,171.223 239.172,171.053 239.065 C 170.685 238.835,170.162 238.700,168.811 238.484 C 168.258 238.395,167.884 238.199,167.977 238.047 C 168.071 237.895,167.861 237.753,167.511 237.732 C 167.160 237.711,166.769 237.661,166.641 237.621 C 166.513 237.581,165.956 237.441,165.402 237.311 C 164.849 237.181,164.396 236.937,164.396 236.770 C 164.396 236.603,164.192 236.545,163.942 236.641 C 163.692 236.737,163.405 236.682,163.304 236.519 C 163.204 236.356,162.851 236.223,162.520 236.223 C 162.190 236.223,161.920 236.067,161.920 235.877 C 161.920 235.684,161.646 235.603,161.300 235.694 C 160.959 235.783,160.758 235.729,160.854 235.575 C 160.949 235.420,160.671 235.294,160.235 235.294 C 159.799 235.294,159.443 235.164,159.443 235.005 C 159.443 234.711,158.820 234.448,157.533 234.201 C 157.137 234.124,156.766 233.921,156.709 233.749 C 156.652 233.577,156.440 233.437,156.239 233.437 C 156.038 233.437,155.353 233.158,154.717 232.817 C 154.081 232.476,153.560 232.276,153.560 232.373 C 153.560 232.470,153.142 232.252,152.632 231.889 C 152.121 231.525,151.701 231.341,151.698 231.480 C 151.695 231.620,151.591 231.591,151.466 231.417 C 151.341 231.242,150.545 230.755,149.698 230.333 C 148.851 229.911,147.971 229.392,147.741 229.180 C 147.512 228.967,147.125 228.793,146.882 228.793 C 146.639 228.793,146.440 228.659,146.440 228.495 C 146.440 228.332,145.887 228.033,145.211 227.830 C 144.536 227.628,144.056 227.344,144.146 227.199 C 144.236 227.054,144.161 226.935,143.981 226.935 C 143.380 226.935,143.191 226.845,142.871 226.407 C 142.696 226.167,142.344 225.941,142.089 225.904 C 141.834 225.866,141.325 225.560,140.959 225.224 C 140.107 224.443,139.777 224.196,138.080 223.066 C 137.314 222.556,136.567 221.947,136.419 221.713 C 136.192 221.353,136.109 221.353,135.882 221.712 C 135.665 222.055,135.612 222.042,135.608 221.644 C 135.604 221.148,131.933 218.066,131.502 218.196 C 131.374 218.235,131.262 218.092,131.252 217.879 C 131.243 217.666,130.795 217.144,130.258 216.718 C 129.720 216.293,129.404 216.153,129.554 216.409 C 129.705 216.664,129.476 216.525,129.046 216.099 C 128.616 215.673,128.100 215.012,127.898 214.628 C 127.697 214.245,127.328 213.932,127.079 213.932 C 126.829 213.932,126.625 213.802,126.625 213.642 C 126.625 213.280,123.139 209.745,122.863 209.827 C 122.751 209.860,122.472 209.656,122.243 209.373 C 121.887 208.933,121.893 208.898,122.291 209.129 C 122.546 209.278,122.337 208.981,121.827 208.470 C 120.788 207.431,118.865 205.121,118.479 204.449 C 118.341 204.209,118.076 204.106,117.890 204.221 C 117.686 204.347,117.640 204.287,117.774 204.070 C 117.896 203.872,117.813 203.520,117.589 203.286 C 117.366 203.053,116.974 202.547,116.718 202.162 C 116.463 201.777,115.940 201.078,115.557 200.609 C 115.174 200.140,114.861 199.613,114.861 199.439 C 114.861 199.265,114.753 199.076,114.622 199.020 C 114.318 198.888,112.221 195.708,111.734 194.639 C 111.531 194.193,111.269 193.887,111.152 193.959 C 111.035 194.031,110.935 193.922,110.931 193.717 C 110.918 193.152,109.383 190.418,109.167 190.575 C 109.063 190.650,109.045 190.622,109.127 190.511 C 109.300 190.279,107.710 187.206,107.333 187.042 C 107.025 186.908,106.558 185.721,106.351 184.545 C 106.267 184.065,105.988 183.271,105.732 182.781 C 105.476 182.290,105.266 181.714,105.265 181.502 C 105.264 181.289,105.146 181.115,105.003 181.115 C 104.860 181.115,104.571 180.346,104.361 179.408 C 104.150 178.469,103.867 177.770,103.731 177.854 C 103.595 177.938,103.392 177.319,103.281 176.477 C 103.169 175.636,102.959 174.874,102.812 174.784 C 102.592 174.648,102.077 172.668,102.124 172.136 C 102.131 172.051,101.924 171.656,101.663 171.258 C 101.402 170.860,101.270 170.454,101.368 170.355 C 101.467 170.256,101.548 170.361,101.548 170.588 C 101.548 170.815,101.638 170.912,101.747 170.802 C 101.856 170.693,101.787 170.411,101.592 170.177 C 101.397 169.942,101.150 168.929,101.042 167.925 C 100.935 166.921,100.738 166.029,100.606 165.943 C 100.474 165.858,100.265 164.641,100.143 163.240 C 100.021 161.840,99.824 160.754,99.704 160.827 C 99.585 160.901,99.544 159.978,99.613 158.776 C 99.698 157.300,99.633 156.655,99.414 156.791 C 99.191 156.929,99.093 154.853,99.103 150.163 C 99.112 145.615,99.222 143.400,99.431 143.530 C 99.637 143.656,99.710 143.020,99.641 141.705 C 99.583 140.594,99.621 139.739,99.726 139.804 C 99.830 139.869,100.015 138.709,100.135 137.226 C 100.255 135.743,100.465 134.458,100.601 134.370 C 100.737 134.282,100.924 133.492,101.017 132.614 C 101.109 131.737,101.328 130.751,101.503 130.425 C 101.677 130.099,101.982 128.901,102.180 127.764 C 102.378 126.627,102.653 125.697,102.791 125.697 C 102.929 125.697,103.138 125.128,103.255 124.433 C 103.372 123.738,103.662 122.797,103.900 122.343 C 104.137 121.889,104.332 121.308,104.334 121.053 C 104.336 120.797,104.551 120.180,104.811 119.681 C 105.071 119.183,105.321 118.534,105.365 118.241 C 105.410 117.948,105.603 117.519,105.794 117.289 C 105.986 117.058,106.242 116.452,106.363 115.943 C 106.485 115.433,106.789 114.780,107.038 114.493 C 107.287 114.206,107.407 113.835,107.304 113.668 C 107.201 113.502,107.242 113.319,107.395 113.262 C 107.547 113.205,108.110 112.346,108.644 111.354 C 109.179 110.361,109.438 109.640,109.220 109.751 C 109.002 109.862,109.067 109.753,109.365 109.509 C 109.663 109.265,109.907 108.906,109.907 108.712 C 109.907 108.518,110.035 108.359,110.192 108.359 C 110.349 108.359,110.569 107.941,110.681 107.430 C 110.793 106.920,111.021 106.502,111.186 106.502 C 111.352 106.502,111.633 106.084,111.811 105.573 C 111.989 105.062,112.231 104.644,112.348 104.644 C 112.465 104.644,112.973 103.878,113.478 102.942 C 113.983 102.006,114.496 101.240,114.619 101.239 C 114.741 101.239,114.766 101.042,114.674 100.802 C 114.575 100.546,114.752 100.288,115.101 100.177 C 115.675 99.995,116.581 98.565,116.455 98.042 C 116.421 97.902,116.537 97.876,116.713 97.984 C 116.888 98.093,117.125 97.940,117.239 97.644 C 117.352 97.348,117.665 96.872,117.933 96.587 C 118.986 95.466,120.059 94.118,119.899 94.118 C 119.807 94.118,120.099 93.828,120.549 93.474 C 121.000 93.119,121.292 92.706,121.198 92.555 C 121.105 92.404,121.313 92.103,121.660 91.886 C 122.007 91.669,122.291 91.293,122.291 91.050 C 122.291 90.808,122.383 90.701,122.496 90.814 C 122.763 91.081,126.006 87.899,126.006 87.368 C 126.006 87.144,126.130 87.037,126.281 87.130 C 126.641 87.353,127.308 86.544,127.010 86.246 C 126.883 86.120,126.978 86.063,127.219 86.120 C 127.461 86.176,127.826 85.901,128.032 85.507 C 128.237 85.113,128.457 84.834,128.521 84.887 C 128.762 85.086,131.269 82.851,131.269 82.438 C 131.269 82.201,131.383 82.077,131.523 82.163 C 131.662 82.249,132.143 81.979,132.593 81.562 C 133.042 81.146,133.520 80.803,133.655 80.800 C 133.790 80.797,134.229 80.448,134.630 80.026 C 135.031 79.603,135.492 79.257,135.654 79.257 C 135.817 79.257,135.862 79.114,135.754 78.940 C 135.646 78.765,135.688 78.661,135.847 78.707 C 136.184 78.806,139.938 76.164,139.938 75.828 C 139.938 75.704,140.321 75.445,140.789 75.253 C 142.257 74.650,143.192 74.008,143.104 73.662 C 143.057 73.479,143.150 73.410,143.311 73.509 C 143.472 73.609,143.848 73.445,144.148 73.145 C 144.448 72.846,144.772 72.621,144.870 72.645 C 145.226 72.734,147.364 71.496,148.021 70.820 C 148.393 70.437,148.616 70.271,148.516 70.451 C 148.417 70.631,148.943 70.496,149.686 70.151 C 150.429 69.807,150.984 69.439,150.919 69.334 C 150.854 69.229,150.998 69.143,151.238 69.143 C 151.665 69.143,156.969 66.623,157.276 66.275 C 157.361 66.178,157.709 66.055,158.050 66.000 C 158.390 65.946,158.825 65.700,159.016 65.453 C 159.209 65.205,159.589 65.091,159.868 65.198 C 160.146 65.305,160.372 65.238,160.372 65.049 C 160.372 64.860,160.476 64.729,160.604 64.758 C 161.075 64.864,163.158 64.320,163.158 64.091 C 163.158 63.899,164.525 63.486,165.175 63.481 C 165.261 63.481,165.713 63.285,166.180 63.046 C 166.646 62.807,167.620 62.514,168.344 62.393 C 169.067 62.273,169.659 62.061,169.659 61.921 C 169.659 61.782,170.356 61.572,171.208 61.455 C 172.059 61.338,172.678 61.116,172.583 60.962 C 172.487 60.807,172.731 60.671,173.124 60.658 C 174.228 60.623,175.304 60.386,175.672 60.098 C 175.856 59.954,176.402 59.893,176.886 59.963 C 177.370 60.033,177.927 59.963,178.124 59.808 C 178.322 59.652,179.246 59.428,180.178 59.309 C 181.110 59.190,182.077 58.928,182.327 58.726 C 182.697 58.427,182.731 58.445,182.508 58.824 C 182.287 59.199,182.320 59.219,182.681 58.928 C 182.929 58.727,185.324 58.410,188.080 58.211 C 190.805 58.016,193.382 57.740,193.808 57.598 C 194.890 57.239,207.024 57.212,208.182 57.566 " stroke="none" fill="#fcfbfc" fill-rule="evenodd"></path><path id="path1" d="M205.573 90.712 C 205.195 90.956,205.235 91.013,205.787 91.017 C 206.160 91.020,206.551 90.882,206.656 90.712 C 206.900 90.318,206.183 90.318,205.573 90.712 M257.585 91.022 C 257.585 91.362,257.724 91.641,257.895 91.641 C 258.065 91.641,258.204 91.362,258.204 91.022 C 258.204 90.681,258.065 90.402,257.895 90.402 C 257.724 90.402,257.585 90.681,257.585 91.022 M183.396 92.017 C 183.313 92.151,183.524 92.260,183.864 92.260 C 184.205 92.260,184.551 92.151,184.634 92.017 C 184.717 91.883,184.506 91.774,184.165 91.774 C 183.825 91.774,183.478 91.883,183.396 92.017 M228.793 92.570 C 228.547 92.721,228.449 92.948,228.574 93.074 C 228.700 93.200,228.965 93.140,229.164 92.941 C 229.632 92.473,229.371 92.212,228.793 92.570 M178.947 92.879 C 178.947 93.050,179.156 93.189,179.412 93.189 C 179.667 93.189,179.876 93.050,179.876 92.879 C 179.876 92.709,179.667 92.570,179.412 92.570 C 179.156 92.570,178.947 92.709,178.947 92.879 M143.147 94.466 C 143.119 95.298,143.198 95.595,143.374 95.317 C 143.705 94.795,143.741 93.189,143.421 93.189 C 143.293 93.189,143.170 93.764,143.147 94.466 M174.303 93.808 C 174.303 93.978,174.721 94.118,175.232 94.118 C 175.743 94.118,176.161 93.978,176.161 93.808 C 176.161 93.638,175.743 93.498,175.232 93.498 C 174.721 93.498,174.303 93.638,174.303 93.808 M225.697 93.808 C 225.697 93.978,226.115 94.118,226.625 94.118 C 227.136 94.118,227.554 93.978,227.554 93.808 C 227.554 93.638,227.136 93.498,226.625 93.498 C 226.115 93.498,225.697 93.638,225.697 93.808 M143.963 108.204 C 143.963 108.460,144.102 108.669,144.272 108.669 C 144.443 108.669,144.582 108.460,144.582 108.204 C 144.582 107.949,144.443 107.740,144.272 107.740 C 144.102 107.740,143.963 107.949,143.963 108.204 M144.582 110.879 C 144.582 111.073,144.338 111.410,144.041 111.628 C 143.743 111.846,143.613 112.137,143.752 112.277 C 143.891 112.416,144.271 112.183,144.596 111.760 C 145.260 110.896,145.349 110.526,144.892 110.526 C 144.721 110.526,144.582 110.685,144.582 110.879 M256.656 110.849 C 256.656 111.315,257.852 112.530,258.083 112.299 C 258.190 112.192,258.052 111.878,257.777 111.603 C 257.501 111.327,257.276 110.972,257.276 110.814 C 257.276 110.656,257.136 110.526,256.966 110.526 C 256.796 110.526,256.656 110.671,256.656 110.849 M265.944 128.947 C 265.944 129.203,266.084 129.412,266.254 129.412 C 266.424 129.412,266.563 129.203,266.563 128.947 C 266.563 128.692,266.424 128.483,266.254 128.483 C 266.084 128.483,265.944 128.692,265.944 128.947 M265.241 156.224 C 265.117 156.348,265.015 156.664,265.015 156.925 C 265.015 157.273,265.107 157.308,265.360 157.055 C 265.549 156.866,265.651 156.550,265.586 156.354 C 265.520 156.159,265.365 156.100,265.241 156.224 M261.920 165.609 C 261.920 165.766,261.838 166.149,261.739 166.461 C 261.575 166.980,261.601 166.977,262.049 166.427 C 262.610 165.739,262.677 165.325,262.229 165.325 C 262.059 165.325,261.920 165.453,261.920 165.609 M178.638 190.053 C 178.638 190.202,179.183 190.411,179.850 190.517 C 180.517 190.624,181.125 190.885,181.201 191.099 C 181.277 191.312,181.448 191.385,181.581 191.261 C 181.934 190.933,181.088 190.037,180.601 190.224 C 180.372 190.311,180.186 190.248,180.186 190.083 C 180.186 189.918,179.837 189.783,179.412 189.783 C 178.986 189.783,178.638 189.905,178.638 190.053 M221.053 190.093 C 221.053 190.263,221.262 190.402,221.517 190.402 C 221.772 190.402,221.981 190.263,221.981 190.093 C 221.981 189.923,221.772 189.783,221.517 189.783 C 221.262 189.783,221.053 189.923,221.053 190.093 M128.328 191.701 C 128.669 191.894,129.269 192.393,129.661 192.810 C 130.054 193.227,130.457 193.486,130.557 193.386 C 130.823 193.119,130.049 192.285,129.063 191.775 C 128.052 191.252,127.426 191.189,128.328 191.701 M133.325 196.440 C 133.423 196.695,133.607 196.904,133.735 196.904 C 133.995 196.904,135.998 199.852,136.312 200.697 C 136.422 200.995,136.646 201.238,136.808 201.238 C 136.970 201.238,137.192 201.647,137.302 202.146 C 137.523 203.153,138.390 204.118,138.390 203.358 C 138.390 203.119,138.202 202.649,137.971 202.313 C 137.741 201.978,137.169 201.006,136.700 200.155 C 135.291 197.593,132.653 194.690,133.325 196.440 M145.095 197.075 C 145.190 197.321,145.358 197.523,145.468 197.523 C 145.579 197.523,145.852 197.936,146.075 198.440 C 146.609 199.646,149.635 202.748,151.393 203.891 C 152.159 204.389,152.856 204.883,152.941 204.988 C 153.026 205.094,153.444 205.287,153.870 205.418 C 154.296 205.549,154.721 205.775,154.814 205.919 C 154.908 206.064,155.465 206.266,156.053 206.368 C 156.826 206.502,156.996 206.467,156.671 206.238 C 156.424 206.065,156.110 205.992,155.975 206.076 C 155.839 206.160,155.728 206.092,155.728 205.925 C 155.728 205.758,155.310 205.530,154.799 205.418 C 154.288 205.306,153.870 205.095,153.870 204.950 C 153.870 204.805,153.559 204.587,153.179 204.466 C 152.198 204.155,150.928 203.184,149.104 201.353 C 147.538 199.780,147.231 199.401,146.199 197.760 C 145.617 196.836,144.812 196.336,145.095 197.075 M175.566 202.910 C 175.553 203.233,175.061 203.965,174.474 204.535 C 173.275 205.700,173.320 205.823,174.655 205.034 C 175.569 204.495,176.053 203.473,175.751 202.722 C 175.656 202.484,175.581 202.560,175.566 202.910 M157.276 206.762 C 157.276 207.085,158.766 207.430,160.163 207.430 C 160.725 207.430,160.994 207.319,160.820 207.159 C 160.400 206.772,157.276 206.422,157.276 206.762 M166.099 207.121 C 165.987 207.301,166.302 207.430,166.855 207.430 C 167.376 207.430,167.802 207.291,167.802 207.121 C 167.802 206.950,167.462 206.811,167.046 206.811 C 166.630 206.811,166.204 206.950,166.099 207.121 M145.511 214.459 C 145.511 214.816,146.389 215.642,146.562 215.447 C 146.621 215.380,146.409 215.057,146.090 214.729 C 145.771 214.401,145.511 214.280,145.511 214.459 M172.136 219.187 C 171.795 219.414,172.059 219.496,173.138 219.500 L 174.605 219.505 174.693 229.954 L 174.780 240.402 174.774 229.721 L 174.768 219.040 173.684 218.959 C 173.088 218.915,172.392 219.017,172.136 219.187 M226.905 230.926 C 226.546 232.965,226.561 240.427,226.923 240.069 C 227.146 239.849,227.232 238.067,227.175 234.806 C 227.128 232.095,227.007 230.349,226.905 230.926 " stroke="none" fill="#cecece" fill-rule="evenodd"></path><path id="path2" d="M256.468 87.177 C 256.572 87.446,256.656 87.725,256.656 87.796 C 256.656 87.867,256.783 87.926,256.937 87.926 C 257.091 87.926,257.145 87.647,257.056 87.307 C 256.967 86.966,256.756 86.687,256.587 86.687 C 256.418 86.687,256.365 86.908,256.468 87.177 M162.539 87.248 C 162.539 87.414,162.759 87.635,163.029 87.738 C 163.330 87.854,163.472 87.784,163.397 87.558 C 163.242 87.095,162.539 86.841,162.539 87.248 M167.802 90.192 C 167.802 90.283,168.209 90.560,168.707 90.809 C 169.460 91.185,169.585 91.188,169.448 90.832 C 169.358 90.596,169.171 90.402,169.032 90.402 C 168.894 90.402,168.561 90.318,168.292 90.215 C 168.022 90.111,167.802 90.101,167.802 90.192 M197.391 90.748 C 197.598 91.084,198.670 91.110,198.871 90.785 C 198.952 90.655,198.614 90.532,198.120 90.512 C 197.626 90.492,197.298 90.598,197.391 90.748 M203.096 90.712 C 203.096 91.104,203.729 91.104,204.334 90.712 C 204.696 90.478,204.611 90.411,203.947 90.407 C 203.479 90.405,203.096 90.542,203.096 90.712 M258.313 99.071 C 258.313 100.519,258.366 101.111,258.431 100.387 C 258.496 99.663,258.496 98.479,258.431 97.755 C 258.366 97.032,258.313 97.624,258.313 99.071 M143.099 99.071 C 143.105 100.263,143.233 101.238,143.382 101.238 C 143.531 101.238,143.653 100.263,143.653 99.071 C 143.653 97.879,143.526 96.904,143.370 96.904 C 143.215 96.904,143.093 97.879,143.099 99.071 M143.873 106.275 C 143.962 106.740,144.158 107.121,144.309 107.121 C 144.706 107.121,144.644 106.705,144.147 106.025 C 143.740 105.468,143.722 105.484,143.873 106.275 M257.895 112.877 C 257.895 113.210,259.371 114.861,259.668 114.861 C 259.778 114.861,259.459 114.409,258.959 113.856 C 258.459 113.303,258.015 112.793,257.972 112.721 C 257.930 112.649,257.895 112.719,257.895 112.877 M141.000 116.064 C 141.093 116.215,140.962 116.511,140.709 116.721 C 140.455 116.932,140.248 117.247,140.248 117.423 C 140.248 117.598,140.523 117.424,140.860 117.035 C 141.394 116.420,141.457 115.789,140.985 115.789 C 140.900 115.789,140.907 115.913,141.000 116.064 M266.957 138.700 C 266.957 139.466,267.018 139.779,267.092 139.396 C 267.165 139.013,267.165 138.386,267.092 138.003 C 267.018 137.620,266.957 137.933,266.957 138.700 M134.427 138.854 C 134.427 139.449,134.553 139.859,134.706 139.764 C 134.859 139.669,134.985 139.182,134.985 138.681 C 134.985 138.181,134.859 137.771,134.706 137.771 C 134.553 137.771,134.427 138.258,134.427 138.854 M135.242 149.855 C 135.307 150.533,135.493 151.170,135.656 151.271 C 135.839 151.384,135.871 150.997,135.741 150.263 C 135.450 148.629,135.098 148.342,135.242 149.855 M266.048 150.330 C 265.946 150.597,265.990 150.943,266.146 151.099 C 266.317 151.271,266.454 151.080,266.493 150.614 C 266.565 149.748,266.329 149.598,266.048 150.330 M265.335 154.780 C 265.153 155.120,265.133 155.454,265.289 155.550 C 265.440 155.644,265.630 155.374,265.711 154.950 C 265.888 154.025,265.768 153.970,265.335 154.780 M136.245 155.322 C 136.314 156.126,136.799 156.808,136.820 156.133 C 136.832 155.760,136.703 155.368,136.533 155.263 C 136.362 155.158,136.233 155.185,136.245 155.322 M141.612 169.143 C 141.713 169.455,141.796 169.823,141.796 169.961 C 141.796 170.099,142.008 170.294,142.267 170.393 C 142.757 170.581,142.592 170.124,141.777 169.040 C 141.483 168.649,141.457 168.665,141.612 169.143 M258.471 171.440 C 257.580 172.515,257.203 173.065,257.356 173.065 C 257.441 173.065,257.884 172.577,258.338 171.981 C 259.182 170.875,259.284 170.458,258.471 171.440 M143.841 172.884 C 143.944 173.154,144.165 173.375,144.331 173.375 C 144.738 173.375,144.483 172.671,144.021 172.517 C 143.794 172.441,143.725 172.583,143.841 172.884 M145.820 175.329 C 145.820 175.382,146.273 175.752,146.827 176.152 L 147.833 176.878 147.082 176.055 C 146.441 175.352,145.820 174.995,145.820 175.329 M254.274 176.344 L 253.406 177.147 254.412 176.478 C 255.333 175.865,255.634 175.542,255.280 175.542 C 255.205 175.542,254.752 175.903,254.274 176.344 M249.381 180.415 C 248.700 181.019,248.386 181.338,248.684 181.122 C 248.982 180.906,249.226 180.836,249.226 180.967 C 249.226 181.098,249.582 180.821,250.017 180.351 C 251.171 179.107,250.813 179.142,249.381 180.415 M162.848 185.980 C 163.104 186.074,163.591 186.295,163.932 186.470 C 164.485 186.755,164.506 186.734,164.126 186.274 C 163.892 185.990,163.405 185.770,163.043 185.783 C 162.590 185.800,162.529 185.861,162.848 185.980 M231.102 188.051 C 230.546 188.458,230.562 188.476,231.353 188.325 C 231.818 188.236,232.198 188.040,232.198 187.890 C 232.198 187.492,231.783 187.554,231.102 188.051 M172.910 188.854 C 172.805 189.025,173.014 189.164,173.375 189.164 C 173.735 189.164,173.944 189.025,173.839 188.854 C 173.734 188.684,173.525 188.545,173.375 188.545 C 173.224 188.545,173.015 188.684,172.910 188.854 M178.715 189.687 C 179.013 189.765,179.501 189.765,179.799 189.687 C 180.097 189.609,179.853 189.546,179.257 189.546 C 178.661 189.546,178.417 189.609,178.715 189.687 M130.774 193.266 C 130.651 193.479,130.669 193.545,130.814 193.414 C 130.959 193.282,131.783 193.839,132.644 194.652 L 134.211 196.130 132.674 194.505 C 130.936 192.666,131.069 192.753,130.774 193.266 M148.142 201.548 C 148.981 202.399,149.737 203.096,149.822 203.096 C 149.907 203.096,149.291 202.399,148.452 201.548 C 147.613 200.697,146.858 200.000,146.773 200.000 C 146.687 200.000,147.304 200.697,148.142 201.548 M176.234 200.653 C 176.318 200.890,176.259 201.362,176.102 201.703 C 175.822 202.312,175.825 202.312,176.299 201.721 C 176.871 201.006,176.900 200.730,176.430 200.440 C 176.217 200.307,176.140 200.391,176.234 200.653 M225.701 203.586 C 225.704 204.083,225.848 204.698,226.022 204.954 C 226.249 205.286,226.280 205.067,226.131 204.180 C 225.874 202.644,225.695 202.397,225.701 203.586 M154.003 205.871 C 154.672 206.218,155.295 206.502,155.387 206.502 C 155.770 206.502,154.275 205.640,153.560 205.449 C 153.115 205.329,153.303 205.509,154.003 205.871 M161.496 207.807 C 161.688 208.117,164.622 208.126,164.812 207.817 C 164.891 207.690,164.143 207.580,163.151 207.575 C 162.159 207.569,161.414 207.673,161.496 207.807 M144.584 213.534 C 144.586 213.668,144.934 213.938,145.359 214.135 C 145.783 214.332,146.053 214.368,145.958 214.214 C 145.706 213.806,144.582 213.249,144.584 213.534 M155.444 218.997 C 155.809 219.311,157.309 219.499,157.128 219.207 C 157.019 219.030,156.566 218.885,156.122 218.885 C 155.678 218.885,155.373 218.936,155.444 218.997 M175.037 233.437 C 175.037 235.224,175.088 235.956,175.151 235.062 C 175.213 234.168,175.213 232.705,175.151 231.811 C 175.088 230.917,175.037 231.649,175.037 233.437 " stroke="none" fill="#e4e4e4" fill-rule="evenodd"></path><path id="path3" d="M146.984 83.335 C 146.766 83.473,147.470 83.584,148.581 83.587 C 149.674 83.589,150.467 83.491,150.344 83.368 C 150.035 83.058,147.459 83.033,146.984 83.335 M252.021 83.276 C 251.831 83.394,252.334 83.515,253.139 83.545 C 253.943 83.576,254.497 83.496,254.368 83.367 C 254.064 83.063,252.466 83.001,252.021 83.276 M143.963 90.093 C 143.963 90.671,144.045 90.753,144.334 90.464 C 144.623 90.175,144.623 90.010,144.334 89.721 C 144.045 89.432,143.963 89.515,143.963 90.093 M196.285 90.712 C 196.285 90.882,196.572 91.022,196.922 91.022 C 197.273 91.022,197.474 90.882,197.368 90.712 C 197.263 90.542,196.976 90.402,196.731 90.402 C 196.486 90.402,196.285 90.542,196.285 90.712 M204.334 90.712 C 203.950 90.961,203.976 91.012,204.489 91.012 C 204.830 91.012,205.317 90.877,205.573 90.712 C 205.957 90.464,205.931 90.412,205.418 90.412 C 205.077 90.412,204.590 90.547,204.334 90.712 M209.365 91.235 C 209.663 91.313,210.151 91.313,210.449 91.235 C 210.747 91.157,210.503 91.093,209.907 91.093 C 209.311 91.093,209.067 91.157,209.365 91.235 M177.012 93.411 C 176.544 93.482,176.161 93.679,176.161 93.849 C 176.161 94.188,177.368 93.912,177.848 93.464 C 178.010 93.313,178.080 93.210,178.003 93.235 C 177.926 93.261,177.481 93.340,177.012 93.411 M224.061 93.516 C 224.492 93.912,225.697 94.168,225.697 93.864 C 225.697 93.702,225.274 93.507,224.758 93.431 C 224.242 93.355,223.928 93.393,224.061 93.516 M143.112 95.851 C 143.069 96.430,143.174 96.904,143.344 96.904 C 143.701 96.904,143.769 95.155,143.421 94.940 C 143.293 94.861,143.154 95.271,143.112 95.851 M143.034 101.703 C 143.034 101.958,143.173 102.167,143.344 102.167 C 143.514 102.167,143.653 101.958,143.653 101.703 C 143.653 101.447,143.514 101.238,143.344 101.238 C 143.173 101.238,143.034 101.447,143.034 101.703 M256.966 111.724 C 256.966 111.855,257.314 112.265,257.740 112.636 C 258.166 113.006,258.514 113.221,258.514 113.114 C 258.514 113.007,258.166 112.597,257.740 112.202 C 257.314 111.807,256.966 111.592,256.966 111.724 M143.383 112.662 C 143.150 112.810,143.022 113.121,143.099 113.353 C 143.197 113.647,143.353 113.564,143.612 113.080 C 144.024 112.310,144.002 112.271,143.383 112.662 M134.446 136.223 C 134.464 137.074,134.593 137.771,134.732 137.771 C 134.871 137.771,134.985 137.074,134.985 136.223 C 134.985 135.372,134.856 134.675,134.699 134.675 C 134.541 134.675,134.428 135.372,134.446 136.223 M266.962 136.068 C 266.964 136.920,267.024 137.231,267.095 136.760 C 267.166 136.290,267.164 135.593,267.091 135.212 C 267.018 134.832,266.959 135.217,266.962 136.068 M134.519 140.015 C 134.312 140.600,134.505 143.896,134.761 144.152 C 134.884 144.275,134.985 143.308,134.985 142.002 C 134.985 139.769,134.834 139.125,134.519 140.015 M266.962 141.331 C 266.964 142.183,267.024 142.494,267.095 142.024 C 267.166 141.553,267.164 140.856,267.091 140.476 C 267.018 140.095,266.959 140.480,266.962 141.331 M266.151 150.980 C 265.832 151.300,265.907 152.382,266.234 152.179 C 266.394 152.081,266.503 151.724,266.478 151.387 C 266.426 150.694,266.431 150.700,266.151 150.980 M135.294 151.858 C 135.294 152.319,135.427 152.586,135.604 152.477 C 135.774 152.372,135.913 152.093,135.913 151.858 C 135.913 151.622,135.774 151.344,135.604 151.238 C 135.427 151.129,135.294 151.396,135.294 151.858 M253.619 177.102 C 252.853 177.815,252.756 178.070,253.335 177.848 C 253.685 177.714,254.642 176.471,254.395 176.471 C 254.341 176.471,253.991 176.755,253.619 177.102 M147.868 177.176 C 147.974 177.479,148.358 177.879,148.721 178.065 C 149.286 178.355,149.316 178.343,148.931 177.979 C 148.683 177.745,148.299 177.345,148.078 177.090 C 147.728 176.685,147.701 176.696,147.868 177.176 M130.394 192.858 C 130.790 193.357,131.324 193.853,131.579 193.961 C 131.834 194.068,131.563 193.659,130.976 193.053 C 129.682 191.715,129.417 191.627,130.394 192.858 M167.802 207.121 C 167.802 207.291,168.003 207.430,168.248 207.430 C 168.493 207.430,168.780 207.291,168.885 207.121 C 168.991 206.950,168.790 206.811,168.439 206.811 C 168.089 206.811,167.802 206.950,167.802 207.121 M162.775 207.649 C 163.160 207.723,163.717 207.721,164.013 207.643 C 164.309 207.566,163.994 207.505,163.313 207.508 C 162.632 207.512,162.389 207.575,162.775 207.649 M171.207 219.195 C 170.795 219.462,170.795 219.495,171.207 219.495 C 171.463 219.495,171.881 219.360,172.136 219.195 C 172.549 218.928,172.549 218.895,172.136 218.895 C 171.881 218.895,171.463 219.030,171.207 219.195 M175.051 224.923 C 175.051 227.988,175.097 229.200,175.153 227.616 C 175.210 226.032,175.210 223.524,175.153 222.043 C 175.096 220.562,175.050 221.858,175.051 224.923 M175.019 238.235 C 175.020 239.257,175.078 239.638,175.147 239.081 C 175.216 238.525,175.214 237.689,175.144 237.224 C 175.073 236.758,175.017 237.214,175.019 238.235 " stroke="none" fill="#dcdcdc" fill-rule="evenodd"></path><path id="path4" d="M145.901 84.552 C 145.550 85.487,145.559 85.533,146.008 85.084 C 146.278 84.814,146.451 84.353,146.392 84.060 C 146.318 83.693,146.165 83.847,145.901 84.552 M248.771 83.885 C 248.657 84.070,248.434 84.140,248.276 84.043 C 248.117 83.945,247.988 84.012,247.988 84.192 C 247.988 84.594,248.304 84.604,248.907 84.223 C 249.158 84.064,249.276 83.848,249.171 83.742 C 249.065 83.637,248.885 83.701,248.771 83.885 M245.433 84.734 C 245.135 84.811,244.892 85.004,244.892 85.162 C 244.892 85.599,245.389 85.504,245.820 84.985 C 246.032 84.729,246.154 84.536,246.091 84.556 C 246.027 84.576,245.731 84.656,245.433 84.734 M158.204 85.387 C 158.204 85.854,158.947 86.378,159.582 86.358 C 160.181 86.340,160.177 86.323,159.520 86.058 C 159.137 85.904,158.824 85.635,158.824 85.459 C 158.824 85.283,158.684 85.139,158.514 85.139 C 158.344 85.139,158.204 85.251,158.204 85.387 M243.034 85.459 C 243.034 85.635,242.721 85.904,242.337 86.058 C 241.688 86.319,241.684 86.340,242.269 86.358 C 242.614 86.369,243.135 86.099,243.427 85.759 C 243.870 85.241,243.881 85.139,243.495 85.139 C 243.242 85.139,243.034 85.283,243.034 85.459 M160.372 86.367 C 160.372 86.531,160.657 86.818,161.005 87.004 C 161.590 87.318,161.608 87.295,161.240 86.706 C 160.822 86.036,160.372 85.860,160.372 86.367 M240.480 86.713 C 239.832 87.422,240.301 87.519,241.000 86.820 C 241.267 86.552,241.486 86.274,241.486 86.201 C 241.486 85.903,240.989 86.156,240.480 86.713 M256.057 86.630 C 256.026 87.259,256.635 88.236,257.054 88.231 C 257.345 88.227,257.346 88.172,257.059 87.990 C 256.854 87.860,256.550 87.409,256.382 86.988 C 256.214 86.567,256.068 86.406,256.057 86.630 M164.175 88.345 C 164.344 88.851,165.015 88.949,165.015 88.467 C 165.015 88.226,164.803 88.029,164.542 88.029 C 164.282 88.029,164.117 88.171,164.175 88.345 M257.005 90.036 C 256.961 91.204,257.427 92.262,257.983 92.255 C 258.232 92.252,258.211 92.157,257.919 91.972 C 257.677 91.819,257.381 91.090,257.261 90.351 C 257.064 89.137,257.040 89.107,257.005 90.036 M233.809 90.107 C 233.570 90.490,233.549 90.712,233.753 90.712 C 233.930 90.712,234.158 90.497,234.258 90.234 C 234.537 89.508,234.236 89.423,233.809 90.107 M198.647 90.778 C 198.730 90.912,197.780 91.035,196.535 91.052 C 195.291 91.069,193.506 91.200,192.570 91.343 C 191.338 91.532,191.894 91.564,194.582 91.458 C 196.625 91.379,198.749 91.232,199.301 91.134 C 200.429 90.931,200.373 90.379,199.233 90.473 C 198.828 90.506,198.564 90.644,198.647 90.778 M201.444 90.732 C 201.818 91.106,206.722 91.642,209.288 91.589 L 210.991 91.554 209.288 91.318 C 208.351 91.189,206.575 91.069,205.341 91.052 C 204.071 91.035,203.096 90.887,203.096 90.712 C 203.096 90.542,202.650 90.402,202.105 90.402 C 201.404 90.402,201.211 90.499,201.444 90.732 M213.932 91.611 C 213.932 92.031,215.735 92.574,216.997 92.533 C 217.928 92.503,217.831 92.451,216.409 92.216 C 215.472 92.061,214.659 91.799,214.603 91.633 C 214.473 91.253,213.932 91.235,213.932 91.611 M230.215 92.415 C 229.588 92.841,228.959 93.189,228.817 93.189 C 228.675 93.189,228.385 93.398,228.173 93.653 C 227.583 94.365,228.154 94.206,229.284 93.344 C 229.843 92.918,230.431 92.570,230.592 92.570 C 230.752 92.570,231.057 92.361,231.269 92.105 C 231.821 91.441,231.520 91.529,230.215 92.415 M184.985 92.260 L 183.746 92.482 184.985 92.521 C 185.666 92.543,186.432 92.425,186.687 92.260 C 187.241 91.902,186.982 91.902,184.985 92.260 M182.043 92.547 C 182.043 92.705,181.800 92.898,181.502 92.975 C 181.044 93.095,181.039 93.123,181.464 93.153 C 181.741 93.173,182.141 92.980,182.353 92.724 C 182.619 92.404,182.631 92.260,182.391 92.260 C 182.200 92.260,182.043 92.389,182.043 92.547 M219.195 92.578 C 219.195 92.847,220.397 93.329,220.589 93.136 C 220.649 93.077,220.360 92.868,219.946 92.673 C 219.533 92.478,219.195 92.435,219.195 92.578 M171.827 92.924 C 172.553 93.595,173.649 94.077,173.487 93.654 C 173.389 93.398,173.195 93.189,173.057 93.189 C 172.919 93.189,172.551 93.097,172.239 92.985 C 171.927 92.872,171.741 92.845,171.827 92.924 M143.725 95.356 C 143.725 95.952,143.789 96.196,143.867 95.898 C 143.945 95.600,143.945 95.112,143.867 94.814 C 143.789 94.516,143.725 94.760,143.725 95.356 M258.008 98.916 C 258.009 100.619,258.061 101.276,258.123 100.377 C 258.186 99.477,258.185 98.084,258.122 97.281 C 258.058 96.478,258.007 97.214,258.008 98.916 M257.154 106.372 C 257.051 106.641,256.966 107.260,256.966 107.747 C 256.966 108.234,256.827 108.718,256.656 108.824 C 256.486 108.929,256.347 109.156,256.347 109.328 C 256.347 110.284,257.205 108.578,257.344 107.346 C 257.517 105.811,257.467 105.556,257.154 106.372 M143.634 113.179 C 141.792 115.404,140.655 117.222,141.591 116.448 C 141.874 116.214,142.108 115.866,142.111 115.674 C 142.114 115.482,142.611 114.768,143.214 114.087 C 144.436 112.708,145.616 111.146,145.435 111.146 C 145.371 111.146,144.560 112.060,143.634 113.179 M261.534 118.653 C 262.490 120.541,263.467 121.920,263.467 121.382 C 263.467 121.176,263.259 120.799,263.003 120.544 C 262.748 120.289,262.539 119.811,262.539 119.483 C 262.539 119.154,262.392 118.885,262.213 118.885 C 262.034 118.885,261.742 118.467,261.564 117.957 C 261.385 117.446,261.121 117.028,260.975 117.028 C 260.830 117.028,261.081 117.759,261.534 118.653 M137.990 122.300 C 137.702 122.636,137.588 122.910,137.736 122.910 C 138.076 122.910,138.834 122.013,138.650 121.828 C 138.574 121.752,138.277 121.965,137.990 122.300 M137.497 123.739 C 137.477 124.110,137.252 124.623,136.997 124.878 C 136.741 125.134,136.535 125.527,136.538 125.752 C 136.541 125.977,136.830 125.712,137.181 125.164 C 137.533 124.616,137.755 123.919,137.677 123.616 C 137.562 123.177,137.526 123.202,137.497 123.739 M264.087 124.420 C 264.087 124.570,264.285 124.856,264.527 125.057 C 264.888 125.357,264.937 125.308,264.800 124.785 C 264.637 124.163,264.087 123.881,264.087 124.420 M136.353 127.044 C 136.246 127.323,136.057 127.488,135.932 127.411 C 135.808 127.335,135.707 127.461,135.707 127.693 C 135.707 127.925,135.882 128.047,136.096 127.965 C 136.529 127.799,136.942 126.932,136.702 126.692 C 136.617 126.606,136.460 126.765,136.353 127.044 M265.086 127.303 C 265.154 127.505,265.375 127.725,265.577 127.793 C 265.803 127.868,265.872 127.727,265.757 127.425 C 265.541 126.862,264.901 126.745,265.086 127.303 M265.666 129.598 C 265.622 130.508,266.250 132.198,266.632 132.198 C 266.836 132.198,266.828 132.052,266.608 131.787 C 266.420 131.561,266.138 130.829,265.982 130.162 C 265.825 129.494,265.683 129.240,265.666 129.598 M266.652 140.402 C 266.654 141.254,266.714 141.565,266.786 141.095 C 266.857 140.624,266.855 139.928,266.781 139.547 C 266.708 139.166,266.650 139.551,266.652 140.402 M265.777 150.287 C 265.658 151.081,265.647 151.818,265.752 151.923 C 265.858 152.029,265.944 151.702,265.944 151.197 C 265.944 150.692,266.111 150.111,266.316 149.907 C 266.590 149.633,266.597 149.445,266.340 149.189 C 266.084 148.932,265.937 149.220,265.777 150.287 M136.134 154.494 C 136.309 155.161,136.842 155.657,136.842 155.152 C 136.842 154.624,136.476 153.870,136.219 153.870 C 136.083 153.870,136.045 154.151,136.134 154.494 M265.122 154.348 C 264.844 155.074,265.144 155.159,265.572 154.475 C 265.811 154.092,265.831 153.870,265.628 153.870 C 265.451 153.870,265.223 154.085,265.122 154.348 M136.975 158.072 C 137.242 158.339,137.472 158.792,137.486 159.078 C 137.500 159.371,137.576 159.437,137.661 159.228 C 137.849 158.763,137.239 157.585,136.809 157.585 C 136.633 157.585,136.707 157.804,136.975 158.072 M263.659 160.534 C 263.383 160.809,263.158 161.164,263.158 161.322 C 263.158 161.481,263.448 161.320,263.803 160.965 C 264.158 160.610,264.383 160.255,264.304 160.176 C 264.225 160.097,263.935 160.258,263.659 160.534 M262.743 163.103 C 262.460 163.415,262.229 163.791,262.229 163.937 C 262.229 164.084,262.522 163.889,262.879 163.505 C 263.237 163.121,263.468 162.746,263.394 162.671 C 263.319 162.596,263.026 162.791,262.743 163.103 M261.109 166.386 C 260.830 166.988,260.845 167.100,261.187 166.969 C 261.419 166.880,261.610 166.543,261.610 166.221 C 261.610 165.457,261.527 165.484,261.109 166.386 M142.319 169.969 C 142.761 170.820,143.240 171.517,143.385 171.517 C 143.529 171.517,143.219 170.820,142.695 169.969 C 142.171 169.118,141.692 168.421,141.629 168.421 C 141.567 168.421,141.877 169.118,142.319 169.969 M143.653 172.085 C 143.653 172.247,143.862 172.460,144.118 172.558 C 144.373 172.656,144.582 172.934,144.582 173.177 C 144.582 173.420,144.800 173.702,145.066 173.804 C 145.432 173.944,145.391 173.766,144.897 173.072 C 144.167 172.048,143.653 171.640,143.653 172.085 M257.089 172.833 C 255.745 174.383,255.330 174.923,255.480 174.923 C 255.753 174.923,257.105 173.520,257.510 172.814 C 258.010 171.945,257.853 171.952,257.089 172.833 M146.231 175.176 C 146.691 175.656,146.996 176.144,146.908 176.260 C 146.821 176.376,146.842 176.401,146.956 176.315 C 147.070 176.230,147.418 176.391,147.730 176.673 C 148.811 177.651,148.291 176.847,147.022 175.578 C 145.598 174.154,144.923 173.811,146.231 175.176 M251.238 178.693 C 250.728 179.039,250.565 179.238,250.877 179.135 C 251.189 179.032,251.557 178.947,251.695 178.947 C 251.833 178.947,252.026 178.738,252.124 178.483 C 252.338 177.926,252.388 177.914,251.238 178.693 M151.027 179.412 C 151.533 179.837,152.066 180.185,152.212 180.184 C 152.542 180.182,150.715 178.664,150.363 178.649 C 150.222 178.643,150.521 178.986,151.027 179.412 M152.864 181.065 C 153.162 181.379,153.517 181.576,153.653 181.502 C 154.000 181.315,153.264 180.495,152.748 180.495 C 152.428 180.495,152.457 180.637,152.864 181.065 M248.010 180.932 C 247.811 181.172,247.766 181.442,247.911 181.531 C 248.055 181.621,248.342 181.424,248.547 181.095 C 248.978 180.406,248.554 180.278,248.010 180.932 M157.953 183.694 C 158.180 183.921,158.747 184.202,159.214 184.319 C 159.680 184.436,160.062 184.669,160.062 184.836 C 160.062 185.003,160.329 185.139,160.656 185.139 C 161.532 185.139,162.250 185.474,162.054 185.791 C 161.960 185.943,162.031 186.068,162.211 186.068 C 162.391 186.068,162.539 185.957,162.539 185.820 C 162.539 185.397,161.820 184.830,161.285 184.830 C 161.003 184.830,160.118 184.481,159.318 184.056 C 157.674 183.182,157.357 183.098,157.953 183.694 M243.498 183.591 C 243.393 183.762,243.093 183.901,242.832 183.901 C 242.571 183.901,242.003 184.180,241.571 184.520 C 241.138 184.861,240.924 185.139,241.097 185.139 C 241.269 185.139,241.584 184.930,241.796 184.675 C 242.008 184.420,242.497 184.211,242.884 184.211 C 243.271 184.211,243.667 184.002,243.765 183.746 C 243.966 183.222,243.790 183.120,243.498 183.591 M239.486 185.247 C 239.172 185.476,239.041 185.733,239.195 185.817 C 239.348 185.901,239.717 185.713,240.015 185.400 C 240.646 184.736,240.315 184.640,239.486 185.247 M126.006 185.681 C 126.006 185.866,125.623 186.156,125.155 186.327 C 124.431 186.592,124.402 186.642,124.962 186.663 C 125.654 186.689,126.546 185.886,126.205 185.545 C 126.096 185.435,126.006 185.497,126.006 185.681 M130.859 185.653 C 130.485 186.027,131.335 186.688,132.159 186.664 C 132.931 186.641,132.921 186.622,131.948 186.269 C 131.384 186.065,131.025 185.797,131.148 185.673 C 131.272 185.550,131.303 185.449,131.218 185.449 C 131.133 185.449,130.971 185.541,130.859 185.653 M133.722 187.074 C 133.947 187.372,134.365 187.616,134.651 187.616 C 134.937 187.616,135.346 187.790,135.560 188.003 C 135.873 188.313,135.909 188.283,135.744 187.848 C 135.630 187.550,135.232 187.307,134.859 187.307 C 134.485 187.307,133.984 187.132,133.746 186.920 C 133.376 186.590,133.373 186.613,133.722 187.074 M124.458 187.795 C 124.458 188.054,126.745 190.178,127.518 190.637 C 128.652 191.311,128.229 190.487,127.074 189.774 C 126.469 189.400,125.757 188.762,125.490 188.355 C 125.048 187.680,124.458 187.360,124.458 187.795 M170.046 187.830 C 170.344 187.907,170.588 188.100,170.588 188.258 C 170.588 188.416,170.745 188.545,170.936 188.545 C 171.176 188.545,171.164 188.401,170.898 188.080 C 170.686 187.825,170.286 187.632,170.009 187.652 C 169.583 187.682,169.589 187.710,170.046 187.830 M173.375 188.585 C 174.141 188.769,174.870 189.079,174.995 189.274 C 175.163 189.536,175.224 189.532,175.227 189.260 C 175.234 188.740,174.901 188.590,173.345 188.409 L 171.981 188.250 173.375 188.585 M226.958 188.507 C 226.545 188.622,226.151 188.922,226.083 189.173 C 226.000 189.478,226.043 189.512,226.215 189.274 C 226.355 189.079,227.098 188.781,227.864 188.611 C 228.630 188.441,228.909 188.301,228.483 188.299 C 228.057 188.298,227.371 188.391,226.958 188.507 M138.606 190.094 C 139.150 190.604,139.707 191.022,139.844 191.023 C 139.981 191.023,140.372 191.439,140.712 191.948 C 141.304 192.831,142.115 193.417,142.096 192.947 C 142.081 192.580,140.281 190.712,139.942 190.712 C 139.770 190.712,139.628 190.573,139.628 190.402 C 139.628 190.232,139.434 190.093,139.197 190.093 C 138.960 190.093,138.686 189.884,138.588 189.628 C 138.490 189.373,138.231 189.165,138.013 189.166 C 137.795 189.166,138.061 189.584,138.606 190.094 M177.477 189.386 C 177.945 189.457,178.711 189.457,179.180 189.386 C 179.648 189.315,179.265 189.257,178.328 189.257 C 177.392 189.257,177.009 189.315,177.477 189.386 M221.749 189.378 C 222.047 189.455,222.535 189.455,222.833 189.378 C 223.131 189.300,222.887 189.236,222.291 189.236 C 221.695 189.236,221.451 189.300,221.749 189.378 M219.808 189.946 C 219.593 190.205,219.506 190.507,219.615 190.616 C 219.725 190.726,219.814 190.648,219.814 190.444 C 219.814 190.240,220.128 189.947,220.511 189.793 C 220.982 189.603,221.045 189.507,220.704 189.493 C 220.426 189.483,220.023 189.686,219.808 189.946 M180.734 192.406 C 179.929 193.161,179.379 193.847,179.512 193.929 C 179.645 194.011,180.347 193.391,181.071 192.550 C 182.692 190.667,182.620 190.636,180.734 192.406 M221.067 192.802 C 221.627 193.525,222.147 194.055,222.223 193.979 C 222.299 193.903,221.841 193.311,221.205 192.664 L 220.049 191.486 221.067 192.802 M143.266 194.608 C 143.109 194.765,144.186 196.904,144.421 196.904 C 144.547 196.904,143.800 194.781,143.607 194.588 C 143.519 194.500,143.366 194.509,143.266 194.608 M222.362 194.795 C 222.516 195.257,223.220 195.512,223.220 195.105 C 223.220 194.939,222.999 194.718,222.730 194.615 C 222.428 194.499,222.286 194.568,222.362 194.795 M134.030 195.898 C 134.197 196.196,134.701 196.858,135.149 197.368 C 135.765 198.071,135.718 197.940,134.957 196.827 C 133.962 195.373,133.438 194.848,134.030 195.898 M178.019 196.440 C 177.800 196.703,177.690 196.989,177.776 197.074 C 177.861 197.159,178.109 197.013,178.328 196.749 C 178.547 196.486,178.656 196.200,178.571 196.115 C 178.486 196.030,178.237 196.176,178.019 196.440 M223.862 197.678 C 223.852 197.848,224.120 198.406,224.458 198.916 C 224.898 199.580,225.074 199.691,225.075 199.303 C 225.076 199.005,224.959 198.762,224.815 198.762 C 224.671 198.762,224.402 198.448,224.217 198.065 C 224.032 197.682,223.872 197.508,223.862 197.678 M224.787 200.464 C 224.777 201.121,225.266 202.095,225.481 201.849 C 225.551 201.768,225.426 201.285,225.202 200.774 C 224.894 200.070,224.793 199.995,224.787 200.464 M148.297 202.012 C 148.875 202.608,149.417 203.096,149.502 203.096 C 149.587 203.096,149.184 202.608,148.607 202.012 C 148.029 201.416,147.487 200.929,147.402 200.929 C 147.317 200.929,147.720 201.416,148.297 202.012 M176.297 201.175 C 176.422 201.395,176.356 201.778,176.150 202.026 C 175.929 202.292,175.905 202.477,176.090 202.477 C 176.587 202.477,176.839 201.479,176.435 201.109 C 176.167 200.863,176.130 200.880,176.297 201.175 M137.987 202.012 C 138.160 202.353,138.531 203.071,138.810 203.608 C 139.090 204.145,139.319 204.790,139.319 205.041 C 139.319 205.292,139.528 205.670,139.783 205.882 C 140.298 206.309,139.556 204.178,138.981 203.576 C 138.826 203.414,138.700 203.048,138.700 202.762 C 138.700 202.477,138.468 202.052,138.186 201.818 C 137.726 201.439,137.705 201.459,137.987 202.012 M149.956 203.335 C 150.201 203.731,152.012 205.072,152.012 204.857 C 152.012 204.780,151.501 204.327,150.876 203.851 C 150.251 203.374,149.837 203.142,149.956 203.335 M175.175 205.021 C 174.717 205.495,174.449 205.882,174.579 205.882 C 174.873 205.882,176.315 204.370,176.136 204.249 C 176.065 204.200,175.632 204.548,175.175 205.021 M225.869 206.192 C 226.130 208.322,226.703 209.556,226.881 208.369 C 226.944 207.949,226.843 207.554,226.656 207.492 C 226.469 207.430,226.314 206.938,226.311 206.398 C 226.308 205.859,226.161 205.209,225.983 204.954 C 225.752 204.621,225.719 204.971,225.869 206.192 M171.672 206.502 C 170.815 206.720,170.803 206.740,171.517 206.770 C 171.943 206.787,172.500 206.667,172.755 206.502 C 173.282 206.161,173.010 206.161,171.672 206.502 M158.050 207.585 C 158.801 207.842,161.573 207.931,161.426 207.693 C 161.337 207.549,160.471 207.441,159.502 207.455 C 158.533 207.468,157.879 207.527,158.050 207.585 M167.418 207.649 C 167.804 207.723,168.361 207.721,168.657 207.643 C 168.953 207.566,168.638 207.505,167.957 207.508 C 167.276 207.512,167.033 207.575,167.418 207.649 M162.775 208.269 C 163.160 208.343,163.717 208.340,164.013 208.262 C 164.309 208.185,163.994 208.124,163.313 208.128 C 162.632 208.131,162.389 208.194,162.775 208.269 M141.796 210.332 C 141.796 210.514,142.685 211.407,144.300 212.848 C 144.905 213.387,144.698 213.063,143.807 212.074 C 142.333 210.440,141.796 209.974,141.796 210.332 M145.511 213.710 C 145.511 213.768,145.929 214.216,146.440 214.706 C 146.950 215.195,147.368 215.457,147.368 215.286 C 147.368 215.116,146.950 214.668,146.440 214.290 C 145.929 213.913,145.511 213.652,145.511 213.710 M149.735 216.878 C 149.832 217.131,150.235 217.337,150.630 217.337 C 151.026 217.337,151.537 217.525,151.766 217.754 C 151.995 217.984,152.692 218.267,153.313 218.383 C 153.935 218.500,154.513 218.734,154.598 218.903 C 154.683 219.072,154.717 219.033,154.673 218.816 C 154.629 218.599,154.187 218.297,153.690 218.146 C 152.818 217.880,151.189 217.216,150.089 216.677 C 149.688 216.481,149.602 216.530,149.735 216.878 M173.684 218.610 C 173.301 218.885,173.321 218.911,173.801 218.755 C 174.120 218.650,174.608 218.742,174.884 218.958 C 175.331 219.306,175.340 219.290,174.962 218.808 C 174.469 218.180,174.315 218.156,173.684 218.610 M157.121 219.195 C 157.226 219.365,157.660 219.505,158.086 219.505 C 158.512 219.505,158.788 219.621,158.701 219.763 C 158.613 219.905,158.744 220.021,158.992 220.021 C 159.690 220.021,159.525 219.642,158.654 219.245 C 157.686 218.804,156.862 218.777,157.121 219.195 M168.576 219.335 L 167.647 219.756 168.885 219.590 C 169.567 219.499,170.256 219.303,170.418 219.155 C 170.875 218.736,169.627 218.858,168.576 219.335 M226.394 238.854 C 226.397 239.536,226.461 239.778,226.535 239.393 C 226.609 239.008,226.606 238.450,226.529 238.154 C 226.451 237.858,226.390 238.173,226.394 238.854 " stroke="none" fill="#ececec" fill-rule="evenodd"></path></g></svg>